<?xml version="1.0" encoding="utf-8"?>
<!-- Generator: Adobe Illustrator 25.2.1, SVG Export Plug-In . SVG Version: 6.00 Build 0)  -->
<svg version="1.1" id="Capa_1" xmlns="http://www.w3.org/2000/svg" xmlns:xlink="http://www.w3.org/1999/xlink" x="0px" y="0px"
	 viewBox="0 0 512 512" style="enable-background:new 0 0 512 512;" xml:space="preserve">
<style type="text/css">
	.st0{fill:#2E3333;}
	.st1{fill:#414529;}
	.st2{fill:#494F2E;}
	.st3{fill:#383B20;}
	.st4{fill:#44482C;}
	.st5{fill:#33371E;}
	.st6{fill:#252B29;}
	.st7{fill:#53583B;}
	.st8{fill:#454A29;}
	.st9{fill:#262817;}
	.st10{fill:#404523;}
	.st11{fill:#151817;}
	.st12{fill:#1C2120;}
	.st13{fill:#212525;}
	.st14{fill:#3D4121;}
</style>
<g>
	<path class="st0" d="M177,57.9c13.2,0.4,26.5,0.4,39.7,1.7c7,0.7,13.8,1.6,20.4,4c-0.5,0.8-1.2,1.1-2.1,1c-1-0.1-2.4-1.4-2.7,0.6
		c-0.2,1.3,1.2,1.3,2,1.8c1.8,1,4.4,1,4.8,3.8c-2.1-0.1-4.2-0.1-6.4-0.6c-9.8-2.3-19.7-4-29.7-4.3c-14.4-0.4-28.7-0.5-42.9,2.9
		c-3,0.6-6.2,0.4-9,2c-3.1,0.2-6.5-0.9-9,2c-4.6,1.2-9.3,1.5-13.8,3.1c-9.9,3.4-18.6,9.1-27.7,13.8c-1.8,0.9-4.4,0.7-5.4,3.1
		c-1.3,1-2.7,2-4,3c-4.9,3-9.4,6.5-13,11c-2.7,2.3-5.9,4.2-7,8c-8.2,7.2-10.9,17.5-14.9,27c-2.1,5.5-2.3,11.3-3.1,17
		c-2.1,3.9-0.5,8.1-1,12.1c-0.2,1.4,0.2,2.7,1.9,2.9c0.1,13.1,7.5,23.1,14.7,32.8c7.3,9.9,17.2,17.8,28,23.5
		c12,6.3,23.9,13.2,37.7,15.3c12.9,2,25.4,5.8,38.5,6.3c14.8,0.5,29.5-0.9,44-3.4c8-1.4,16-3.4,23.8-6.2c7.5-2.7,14.5-6.2,22.1-8.5
		c3.2,0.2,7.2-1,8,4c-7.7,4.5-15.6,8.4-24.2,10.9c-8.2,2.4-16.3,4.8-24.8,6.5c-13.2,2.7-26.3,4.3-39.7,4.5
		c-11.1,0.2-22.1-0.5-33.2-1.9c-0.3-1.3-1-2-2.4-2.1c-9.9-0.3-18.7-4.7-27.8-7.6c-18.7-5.8-35.9-15.1-49.5-29.7
		c-4.4-4.8-9.9-8.5-13.5-14c-1-1.5-2.3-1.8-3.8-1.7c-0.3,0-0.7,0-1,0c0-0.3,0-0.7,0-1c-0.8-3.5-3.9-5.8-5-9c0-0.3,0-0.6,0-0.9
		c2-0.1,2.6,1.8,3.9,2.7c0.7,0.4,1.7,0.5,2.3-0.2c0.2-0.3,0.3-1.1,0.1-1.3c-3.4-3.3-1.9-8.5-4.1-11.9c-4.7-7.1-3.4-14.6-2.7-22.1
		c0.3-3.2,0-5.5-2.6-7.3c0.2-2.1,0.2-4.2,0.7-6.4c2.4-11.7,9.4-21,15.9-30.5c8.2-12,20.5-20,32-28.4C99,81,108,77.2,116.8,74.2
		c12.9-4.5,25.6-9.8,39.3-11.4c1.8-0.2,1.8-1.6,1.9-2.9c0.3,0,0.6,0,0.9,0c4.5,1.8,8.6,1.6,12.1-2c0.4,0,0.7,0,1.1-0.1
		c0.9,0.1,1.9,0.1,2.8,0.2C175.7,58.9,176.3,58.8,177,57.9z"/>
	<path class="st1" d="M87.9,330.9c-7.8-6.3-15.9-12.4-23.4-19c-4-3.5-5.5-8.9-8.2-13.4c-3.4-5.6-6.1-11.7-9.5-17.3
		c-2.7-4.5-4.1-9.3-4.4-14.5c2.1-0.1,3.2,0.9,3.8,2.9c0.7,2.1,1.9,4.1,2.8,6.1c-0.1,1.4,0.2,2.6,1.2,3.7c3.8,4.2,6.4,9.2,8.8,14.3
		c-0.2,2.6,2.6,3.7,3,6c-2.6,0.3-1.6,1.8-0.9,3.1c1.1,2,2.4,3.5,4.9,1.9c1.8,0.8,3.3,2.1,4.8,3.2c2.5,1.8,4.5,4.9,8.2,4.8
		c4.2,6.9,12,8.8,18.3,12.9c0.3,0.2,1,0.1,1.4-0.1c3.3-1.4,6.8-0.7,10.3-0.9c1.7,1.7,3.3,3.3,5,5c-0.3,2.4,1.1,3.5,3,4.6
		c9.1,5.1,17.8,10.7,27.3,15c1,0.4,2.1,1.8,3,0.6c0.5-0.6-0.2-2.1-0.4-3.2c0.3,0,0.7,0,1,0c1.4,0,2.4,0.7,3,2
		c-0.2,3.3,2.4,3.9,4.6,5c12.2,6.2,24.3,12.5,36.5,18.5c3.4,1.7,6.1,4.7,9.3,5.9c6,2.1,11.4,5.4,17.1,7.9c2.5,1.1,4.6,2.7,5.7,5.3
		c1.1,2.6,2.7,4.2,5.8,2.9c1.3-0.6,2.8,0.1,2.6,1.3c-1.1,7.2,4.6,8.2,9,10.2c1.7,0.7,2.4,2.1,3.6,3.2c3.2,3.1,6.4,6.7,11.8,4.7
		c2.6,0.4,2.9,3.6,5.1,4.4c8.3,3,15.7,8,23.9,11.5c2.1,0.9,4.3,1.6,5.1,4.1c0.1,1.1-0.1,2.2,1.2,3c7.1,4,14.3,8,21.8,11.1
		c0.3,0,0.5,0,0.8,0c1.9,1.3,3.8,2.5,5.7,3.9c6,4.2,14,5.5,18.4,12.2c0,1.4,0,2.9-0.1,4.3c-17.6-9.3-35.3-18.5-52.9-27.8
		c-19.4-10.3-38.7-20.7-58.1-31c-37-19.8-74-39.5-111-59.3c-7.5-4-15.6-7.1-22-13c3.2-0.4,5.7,2,10,2.8c-4-4.6-7.1-8.1-10.9-10.8
		C91.2,326.7,89,327.6,87.9,330.9z"/>
	<path class="st2" d="M334.9,97c11.4,3.5,22.2,8.7,33.3,13c15.9,6.1,31.7,12.7,47.4,19c0.9,0.3,1.6,1.1,2.3,1.6
		c-1,0.4-1.8,1-2.1,2.1l0,0c-7.3,6.7-12.4,15.3-19.1,22.6c-6.5,7-11.9,14.9-17.8,22.4c-4.2-1.9-8.4-4-12.7-5.6
		c-2-0.7-4.1-2.7-6.4-0.4c-1.7-0.3-3.3-0.7-5-1c-1.5-2.1-3.6-3.3-6-4c-0.6-11.5-2.8-22.7-6.5-33.6c-1-2.8-0.4-6.4-3.5-8.3l0,0
		c0.1-1.7-0.2-3.2-2-4l0,0c0-1.4-0.7-2.4-2-3c0,0,0,0,0,0c-0.7-0.7-1.3-1.4-2-2.1c-0.8-5.3-6.7-7.9-7.6-13.5
		C332.5,103.4,333.8,102.6,334.9,97z M378.5,162.2c-2.5,1.3-3.8,3.6-5.4,5.6c-1.7,2.1-1.4,3,1.2,4.3c5.2,2.8,5.4-2.4,7.5-4.4
		c0.8-0.7,2.5-2.2,1.6-3.2C382.2,163.4,380.2,163,378.5,162.2z"/>
	<path class="st2" d="M424.9,133.6c1,0.4,2,0.8,2.9,1.2c0,1.5,0.7,2.4,2.1,3c-6.4,8-12.7,16-19.1,23.9c-2.3,0.7-4.7-1.7-7,0
		c-1.6,0.1-2.9,0.7-2.9,2.5c0,2.6,3,2,4,3.6c-2.4,4.8-6.2,8.6-9.3,12.8c-5.9,7.8-5.9,7.9,2.9,11.9c2.9,1.3,4.2,2.6,1.3,5.2
		c-1.4,0-2.7,0-4.1,0c-0.8-0.1-1.8,0-2.4-0.4c-4.8-2.9-8.1-1.1-11.5,2.8c-7.8,8.7-14.3,18.4-21.7,27.5c-7.3,8.9-13.4,18.6-21.2,27.1
		c-0.7,0-1.4,0-2.1,0c-0.8-0.1-1.5-0.2-2-1c3.7-3.2,6.1-7.4,8.3-11.7c0.4-0.8,1.9-1.1,3-1.6c2.4-1,4-2.4,5.1-5
		c2.4-5.7,3.5-12,7.2-17.2c0.9-1.3,0.7-3-1.1-3.8c-4.4-1.8-7.9-6.5-13.6-4.4c-2,0.7-3.9-1.8-3.4-2.3c3.1-2.8,4-6.4,4.5-10.2
		c1.6,2.8,3.6,4.4,7.2,3.2c1-0.4,2.3,0,3.4,0.2c1,0.1,2.5,1.3,2.8-0.4c0.3-1.7-1.5-2.1-2.8-1.9c-3.1,0.3-5.3-1.5-7.6-3
		c-0.5-8-0.5-7.9,7.7-8c1.6,0,3.5,0.8,5.1-1.4c-1.2-0.3-2-0.3-2.7-0.7c-2.9-1.6-4-4.3-2.5-7.1c1.2-2.4,3.1-5,6.6-2.7
		c2.4,1.6,5.2,0.8,7.8,0.9c0,0,0,0,0,0c0.6,2.8,3.1,2.3,5,3c5.3,2.7,7.2,1.9,10.7-4.7c4-7.6,10.1-13.6,15.2-20.3
		c1.4,1.6,3.2,1.1,3.6-0.4c1.9-7.7,12.5-8.3,13.4-16.8c0.2-1.5,2.4-2.1,4-2.6C423,134.6,424.3,134.9,424.9,133.6z"/>
	<path class="st3" d="M501.1,208.9c-2.7,12-5.2,24-8.1,35.8c-1.1,4.3,2.2,6.1,3.9,9c0.8,4,1.8,8.1,0,12.1c-2.3,4.8-1.4,9.5,0.2,14.3
		c-0.8,2.4-2.3,4.4-3.9,6.3c-0.9-2.7,0.8-5.1,0.7-7.7c-0.1-2.1,0.7-5.1-1.6-5.9c-5.8-2-3.3-5.5-2.3-8.9c0.4-1.3,0.8-2.6,0.9-3.9
		c0.1-1.7-0.6-3-2.4-3.2c-1.7-0.3-3.6-0.3-4.3,1.6c-0.7,1.8-1.8,3.6-1,5.7c0.5,1.3,0.7,2.4-0.1,3.7c-6.2,9.5-12.5,19-18.4,28.6
		c-4,6.6-9.5,12.3-12.3,19.6c-1.1,2.9-2.4,4.9-5.5,5.5c5.6-8.9,8.4-19.3,14.3-28.3c-0.4-1.3-3.1-0.2-3.2-2.2
		c-0.1-4.1-0.1-8.3,0-12.4c0-0.8,0.6-1.6,1.6-1.5c1.2,0.1,0.9,1.1,1.2,1.8c0.4,1.1-0.9,3.7,1.8,2.9c1.8-0.5,2.9-2.4,1.4-4.4
		c-1.2-1.6-1-2.2,1-3.2c4.7-2.4,4.9-4.8,0.3-6.5c-4.6-1.7-4.7-4.6-4.5-8.3c0.1-1.7,0-3.3,0-5c3.8-5.9,7.1-12,11.3-17.8
		c8.2-11.3,15.9-23.1,23.7-34.8c2.1-3.1,3.8-6.8,7.6-8.4c0.5,0.7,1,1.3,1.4,2C501.9,199.6,498.4,203.4,501.1,208.9z"/>
	<path class="st4" d="M31,254.7c-0.2,0-0.3-0.1-0.5-0.1c-12.7-4.8-13.2-16.6-15.4-27.3c-3.3-16.1-6.6-32.3-9.9-48.4
		c-0.3-1.3-0.2-2.6-0.3-4c0.3-1.3-0.6-3.2,1.3-3.9c1.7-0.6,2.8,0.4,3.9,1.5c2.6,2.6,6.2,4.7,7.5,7.8c2.4,5.7,6.5,5.8,11.3,5.4
		c1.4,17.5,4.5,34.8,8,52c-5.4,0.8-3.1,5-2.5,7.2C35.7,249.4,34.4,252.3,31,254.7z"/>
	<path class="st5" d="M37,237.7c-3.5-17.2-6.6-34.5-8-52c0,0,0,0,0,0c1.5,0,2.9,0,3-1.9c0.6,0,1.3,0,1.9,0c0.6,3.9,3.6,2.8,6,2.9
		c0.6,3.4,3.2,4.8,6,6c1.2,3.3,4.3,5.5,5,9c-5.4,0.5-5.7,0.8-3.4,5.3c3.8,7.4,1.6,16.2,5.4,23.6c-3,12.2,5.6,21.9,7.1,33.3
		c0.7,5.8,2.8,12.2,6.6,17.4c1.6,2.2,1.8,5.3,2.7,7.9c0.3,0.8,0.6,1.9-0.4,2.1c-3.4,0.4-5.8,5-9.9,2.3c-2.4-5.1-5-10.1-8.8-14.3
		c-1-1.1-1.2-2.3-1.2-3.7c1.8,0.1,3.7-0.4,5.3,0.9c1.4,1.1,2.7,3.1,4.6,1.4c2.1-1.9,1.2-4.4-0.1-6.4c-1.6-2.7-3.2-5.3-4-8.5
		c-2.6-10.4-5.8-20.7-5.9-31.6c0-0.8-0.2-1.7-1.9-2c0.2,3.3-0.1,6.4,0.6,9.7c1.7,7.5,4.8,15.5-3.7,21.4c-0.1,0.1,0,0.6,0,0.9
		c1.4,0.8,3.3-0.4,4.8,1.5c-2.1,1.4-4.2,2-6.5,1.8c-0.1-1-0.1-1.9-0.2-2.9c-0.9-2.8-2.4-5.6-2.4-8.4C39.6,248,35.1,243.4,37,237.7z
		 M42.4,202.9c1.2-4.5,0.4-7.7-1.7-10.6C41.1,195.5,40.5,198.9,42.4,202.9z M44.6,214.7c0.1-3.4,1.3-6.9-1-10.8
		C42.2,208.1,44.4,211.3,44.6,214.7z M47.6,199.4c0,0.2,0,0.5-0.1,0.7c0.1-0.1,0.3-0.2,0.3-0.3C47.8,199.6,47.6,199.5,47.6,199.4z"
		/>
	<path class="st4" d="M34.9,109.8c-2-2,0.3-3,1.1-4.1c2.7-3.9,5.6-7.7,8.7-11.8c1.9,2.2,4.3,3.6,7.4,1.8c2,2.1,4,0,6,0
		c0.6,3-0.6,5.1-3.1,6.6c-4,2.4-6.7,5.7-8,10.3c-0.4,1.5-1.4,3.3-2.7,4.1c-3.6,2.1-3.6,5.6-4.1,9c-1.4,0.2-2.8-0.5-4,0.5
		c0,0,0.7,0.9,1,1.4c-1.9,7.1-3.7,14.1-5.6,21.2c-0.8,3.2-0.7,7-2.6,9.4c-2.4,3-2.6,4.9,0.1,7.4c-1.6,0.4-3.2,0.6-4.7,1.2
		c-2.5,0.9-3.2,3.1-3.2,5.5c0,2.8,2.5,2.6,4.2,3.2c2.6,0.9,5.1-0.8,7.7-0.9c2.5,2.3-0.5,4.7,0.1,7c-4,0.9-7.5-0.6-10.5-3
		c-2.4-2-4.6-4-7.7-5.2c-3.7-1.5-5.4-6.6-3.9-9.5c8-0.4,8.1-0.4,9.3-8.3c0.5-3.6,0.6-7.2,0.9-10.8c1.6-0.3,3.8,0.9,4.5-1.4
		c0.5-1.5,0.6-3.3-1.7-3.6c2.6-6.3,6.1-12.2,9.6-18.1c1.1-0.3,1.3-1.1,1.2-2.1c0,0-0.1,0.1-0.1,0.1c3.5-0.8,4-3.7,4-6.5
		C38.9,111,37.5,109.5,34.9,109.8z"/>
	<path class="st4" d="M54,86.6c4-2.5,8-5,12.1-7.4c0.7-0.4,1.6-1.1,2.2-0.9c7.8,2.3,13.5-2.7,19.8-5.6c6.1-2.8,12.3-5.6,18-9.1
		c8.1-4.9,17.3-6,26-8.8c2.9,0.1,5.7,0,8-2c1.4-0.1,2-0.9,2-2.3c0.1-1.6,0-3.8,2.5-3.2c1.8,0.5,1.6,2.2,0.9,3.7
		c-0.3,0.7,0,1.3,0.6,1.7c-0.9,1.6-2.4,2.9-1.9,5c-3.1,1.1-6.4,0.9-9.6,1.1c-2.9,0.2-6.4-0.2-7.4,3.9c-0.7,1.2-1.9,1-3,1
		c-8.1,0.7-14.7,7.3-23.4,6.1c-0.6-0.1-1.5,0.6-2.1,1.2c-5.5,6-12.7,9.8-20,11.9c-6.3,1.8-9.8,5.2-13,10.2c-1,1.7-2.4,5-5.7,2.4
		C58.5,92.3,57.9,88.4,54,86.6z"/>
	<path class="st6" d="M239,70.8c-0.4-2.8-3-2.8-4.8-3.8c-0.8-0.5-2.2-0.4-2-1.8c0.3-2.1,1.7-0.7,2.7-0.6c0.9,0.1,1.6-0.2,2.1-1
		c0.3,0.1,0.6,0.1,1,0.2c0.8,1,1.4,2.7,3,0.8c0.7,0.1,1.3,0.2,2,0.3c0.2,2.1,1.7,2.3,3.4,2.9c7.6,2.2,15,4.3,22,8.6
		c3.3,2.1,7.6,6,12.8,4.2c7,3,13.3,7.2,19.7,11.1c0,1,0,2,0,3.1c-1.8,2.8-2,5.4,0,8.3c1,1.5,2.6,3.4,1,5.6c-1.4-1-0.9-3.5-3-4
		c-0.6-1.4-1.9-2.2-3.1-3.1c-5.6-4-10.9-8.7-16.9-12.1c-8.6-5-17-10.7-27-12.8c-1.2-1.2-2.5-1.7-4.2-2.2
		C244.7,73.8,241.1,73.8,239,70.8z"/>
	<path class="st1" d="M493.9,278.7c0.1,2.6-1.6,5-0.7,7.7c-14.9,23.2-29.8,46.3-44.7,69.5c-7.5,11.6-15.1,23.2-22.7,34.8
		c-4.5-1.3-4.8,3.8-7.7,5c0-1.3,0-2.7,0-4c0.6-1,1.1-2.1,1.9-2.9c4.4-3.9,8.1-8.8,11.2-13.5c4.1-6.4,8.7-12.5,12.6-19
		c0.8-1.4,2.7-2.4,3-3.8c1.8-9.2,10.1-14.1,14.2-21.9c3.1-6,7.7-11.8,10.2-17.8c2.4-5.8,6.6-9.6,9.5-14.5c2.3-3.9,5.3-7.4,7-11.9
		C488.5,283.6,489.5,279.3,493.9,278.7z"/>
	<path class="st7" d="M429.9,137.8c-1.3-0.6-2-1.5-2.1-3c11.8,3.9,23.1,9.2,34.7,13.7c6.1,2.4,12.1,5.1,18.3,7.2
		c8.1,2.6,14,7.6,18.1,14.9c0,0-0.3,0.3-0.3,0.3c-1.9-0.1-3.9-0.1-5.8-0.2c-1.1-1.4-2-2.9-3.5-4c-9.4-7.1-20.1-9.2-31.5-8.9
		c-1.3-3-0.6-7.6-5.3-7.9c-6.7-0.4-13.2,0.1-17.1,6.9c-1.3,2.2-3,3.9-4.8,5.6c-2.3,2.3-4.6,4.4-0.1,6.8c1.4,0.7,1.3,2.2,1.3,3.5
		c-1-0.3-2-0.7-3-1c-1.1-2-3.3-2.7-5-4c2-5.9,7-9.8,10.1-15c2-3.3,7-5.9,6-9.5C439,139.7,433.3,139.9,429.9,137.8z"/>
	<path class="st4" d="M503.4,193.8c-3.9,1.6-5.6,5.3-7.6,8.4c-7.8,11.7-15.5,23.5-23.7,34.8c-4.2,5.8-7.5,11.9-11.3,17.8
		c-4.9,5.3-8.8,11.5-12.7,17.5c-0.5,0.8-1.2,1.9-1.1,2.7c0.6,3.5-1.8,4.1-4.2,4.8c0.1-1.8,0-3.5-1-5c1.5-5.4,5.6-9.3,8.6-13.8
		c11.7-17.2,22.9-34.7,35.4-51.4c4.7-6.2,8.3-13.2,13.4-19.1c1.9-2.2,3.1-4.7,2.5-7.8c0-2.6,0-5.3,0-7.9c0.3,0,0.5-0.1,0.8-0.1
		C505,181,503.7,187.4,503.4,193.8z"/>
	<path class="st8" d="M334.9,97c-1.2,5.6-2.5,6.4-9.6,5.3c0.9,5.5,6.8,8.1,7.6,13.5c0,1.3,0.6,2.1,2,2.1c0,0,0,0,0,0
		c0,1.5-0.1,2.9,2,3c0,0,0,0,0,0c-0.1,1.7,0.2,3.2,2,4c0,0,0,0,0,0c2,9,4,18,6,27c-2.3,0-3.7-1.9-3.6-3.5c0.5-6.1-4.1-10.3-5.9-15.4
		c-2.6-7.4-6.1-14.8-11.4-21.1c-5.8-6.9-10.3-14.9-17.2-21c0.4-0.3,0.7-0.6,1.1-1c3.7-1,7-0.2,10.3,1.6c1.1,0.6,2.4,2.2,3.8,0.2
		C326.9,92.1,330,96.7,334.9,97z"/>
	<path class="st2" d="M417.9,395.7c2.9-1.2,3.2-6.3,7.7-5c-14.1,21.8-27.4,44.2-42.6,65.1c-5.4,7.3-14.3,13.9-25.4,12.9
		c-6.2-0.5-12.5,0.8-18.7-0.8c0-1.4,0-2.9,0.1-4.3c8.3-0.4,16.7-2.2,25-0.2c0.7,0.2,1.7-0.2,2.2-0.7c4.7-3.9,9.9-6.9,15.1-10
		c2.6-1.5,4.7-3.6,4.6-7c2.7-1.6,5-3.5,5-7c3.1-0.9,3.2-3.6,4-6l0,0c3.1-3.2,6.1-6.5,7-11c0-0.3,0-0.6,0-0.9c3.6-0.5,4.2-3,4-6
		C408.6,407.5,414.7,402.5,417.9,395.7z"/>
	<path class="st9" d="M42.2,264.7c2.3,0.2,4.5-0.5,6.5-1.8c-1.4-1.9-3.4-0.7-4.8-1.5c0-0.3-0.2-0.8,0-0.9c8.4-5.9,5.3-13.8,3.7-21.4
		c-0.7-3.3-0.4-6.4-0.6-9.7c1.7,0.3,1.9,1.2,1.9,2c0.1,10.9,3.3,21.2,5.9,31.6c0.8,3.2,2.4,5.8,4,8.5c1.2,2,2.1,4.5,0.1,6.4
		c-1.9,1.8-3.3-0.3-4.6-1.4c-1.6-1.3-3.5-0.7-5.3-0.9c-1-2-2.2-4-2.8-6.1c-0.6-2.1-1.7-3-3.8-2.9C42.3,266,42.3,265.4,42.2,264.7z"
		/>
	<path class="st7" d="M145.9,52.8c-0.6-0.4-0.9-1-0.6-1.7c0.7-1.5,0.9-3.2-0.9-3.7c-2.5-0.6-2.4,1.6-2.5,3.2c-0.1,1.4-0.6,2.2-2,2.3
		c-2.6-1.7-5-3.8-8.3-4.2c-0.8-5,4.1-5.8,6.1-5.3c10.6,2.6,21,6.1,31.4,9.3c0.3,0.1,0.5,0.8,0.8,1.2c-4.6,0-9.2-0.1-13.9-0.1
		C153,50.3,149.4,52.4,145.9,52.8z"/>
	<path class="st7" d="M11.1,163.9c-1.5,2.9,0.2,8,3.9,9.5c3.1,1.2,5.3,3.3,7.7,5.2c3,2.4,6.5,3.9,10.5,3c1.3,0.4,2.6,0.7,3.9,1.1
		c-0.7,1.2-1.9,0.9-3,1.1c-0.6,0-1.3,0-1.9,0c-1.5-0.1-2.9-0.1-3,1.9c0,0,0,0,0,0c-4.8,0.4-8.9,0.2-11.3-5.4
		c-1.3-3.1-4.9-5.3-7.5-7.8c-1.1-1.1-2.3-2.1-3.9-1.5c-1.9,0.7-1,2.6-1.3,3.9c-1.6-2-1.3-4.6-1.7-6.9c-0.3-1.8,0.7-4.5,2.1-5.7
		C7.2,160.8,8.9,164.2,11.1,163.9z"/>
	<path class="st9" d="M308,89.8c-0.4,0.3-0.7,0.6-1.1,1c-3,0.8-2.3,3.1-1.3,4.7c1.1,1.8,2.8,3.2,4.4,4.7c5.6,5,9.8,10.9,13,17.6
		c-2,0.1-2.1,1.5-2,3c-0.6-0.6-1.7-1.3-1.6-1.6c1.2-4-1.9-5.8-3.8-8.4c-4.4-5.8-10-10.4-14.6-15.9c0-1,0-2,0-3.1c1.3-1,2.6-2,3.9-3
		C306,88.8,307.2,88.6,308,89.8z"/>
	<path class="st7" d="M424.9,133.6c-0.7,1.3-2,1-3,1.3c-1.6,0.5-3.9,1.1-4,2.6c-0.9,8.5-11.5,9.1-13.4,16.8
		c-0.4,1.5-2.1,2.1-3.6,0.4c4.1-5.3,8.2-10.6,12.4-15.8c1.5-1.8,2.8-3.6,2.6-6.1c0,0,0,0,0,0c1.2,0.1,2.3,0.1,3-1.1
		C421.1,131.7,423.2,132.3,424.9,133.6z"/>
	<path class="st7" d="M37,237.7c-1.9,5.6,2.6,10.2,2.6,15.7c0,2.8,1.6,5.6,2.4,8.4c-4.4-1.2-7.5-4.5-11-7.1c3.4-2.4,4.7-5.3,3.5-9.7
		C33.9,242.8,31.6,238.5,37,237.7z"/>
	<path class="st0" d="M281.2,80.7c-5.2,1.8-9.5-2.1-12.8-4.2c-7-4.4-14.4-6.4-22-8.6c-1.7-0.5-3.2-0.8-3.4-2.9
		c7.9,2.1,16.2,2.9,23.4,6.9C271.4,74.7,276.9,76.6,281.2,80.7z"/>
	<path class="st3" d="M156.1,53.7c4.6,0,9.2,0.1,13.9,0.1c0.7,1.3,1.5,2.6,2.2,3.9c-0.4,0-0.7,0-1.1,0.1c-4,0.7-8.1,1.3-12.1,2
		c-0.3,0-0.6,0-0.9,0C155.2,58.5,156.1,55.9,156.1,53.7z"/>
	<path class="st9" d="M501.1,208.9c-2.7-5.5,0.7-9.3,3.7-13.2c2.8,2.1,4.6,5.3,3.6,8.4C507.6,206.9,504.6,208.9,501.1,208.9z"/>
	<path class="st10" d="M87.9,330.9c1.1-3.3,3.2-4.2,6.1-2.2c3.9,2.7,7,6.3,10.9,10.8c-4.4-0.9-6.9-3.2-10-2.8
		c-0.7-0.3-1.5-0.6-1.1-1.6c0.1-0.3,1-0.2,0.4-0.8c-0.2,0.2-0.3,0.5-0.5,0.7c-1.4,0.5-1.8-0.8-2.6-1.4c-0.4-0.3-0.7-0.6-1.1-0.9
		C89.2,332.1,88.6,331.5,87.9,330.9z"/>
	<path class="st2" d="M497,280c-1.6-4.7-2.5-9.4-0.2-14.3c1.9-3.9,0.8-8,0-12.1c4.2,3.2,2.6,7.9,2.7,12
		C499.8,270.6,499.4,275.5,497,280z"/>
	<path class="st11" d="M54,86.6c3.9,1.8,4.6,5.7,6,9.1c-0.6,0-1.3,0.1-1.9,0.1c-2,0-4,2.1-6,0c-0.1-2,0.2-4-0.4-5.9
		C50.9,87.5,52.4,87.2,54,86.6z"/>
	<path class="st1" d="M308,89.8c-0.8-1.2-2-1-3.2-1.1c1.1-1.6,2.5-2.9,4.5-1.9c4.1,2.1,8.9,2,12.7,4.7c-1.3,2-2.7,0.4-3.8-0.2
		C315,89.6,311.6,88.8,308,89.8z"/>
	<path class="st9" d="M131.7,48.6c3.3,0.4,5.7,2.5,8.3,4.2c-2.3,2-5.1,2.1-8,2C131.9,52.8,131.8,50.7,131.7,48.6z"/>
	<path class="st3" d="M34.9,109.8c2.6-0.4,4,1.2,4,3.4c0,2.7-0.5,5.7-4,6.5C36.4,116.4,34.5,113.1,34.9,109.8z"/>
	<path class="st7" d="M24.1,139.8c2.3,0.3,2.3,2.1,1.7,3.6c-0.8,2.3-3,1.1-4.5,1.4C21.8,142.9,22.6,141.1,24.1,139.8z"/>
	<path class="st7" d="M502.7,174.8c-0.3,0-0.5,0.1-0.8,0.1c-2.4-0.2-3.1-1.9-3.2-4l0.3-0.3C500.5,171.7,501.9,173,502.7,174.8z"/>
	<path class="st5" d="M419,131.7c-0.7,1.2-1.9,1.2-3,1.1c0.3-1.1,1.1-1.7,2.1-2.1C418.3,131,418.6,131.3,419,131.7z"/>
	<path class="st0" d="M241,64.7c-1.6,1.9-2.2,0.2-3-0.8C239.1,63.8,240.2,63.6,241,64.7z"/>
	<path class="st3" d="M34.9,119.6c0.1,1-0.1,1.8-1.2,2.1C34,120.9,33.9,119.9,34.9,119.6z"/>
	<path class="st11" d="M177,57.9c-0.6,0.9-1.3,0.9-1.9,0C175.7,57.9,176.3,57.9,177,57.9z"/>
	<path class="st1" d="M89.9,332.7c0.4,0.3,0.7,0.6,1.1,0.9C90.3,333.7,90.1,333.3,89.9,332.7z"/>
	<path class="st12" d="M252,76.8c10,2.1,18.4,7.9,27,12.8c6,3.4,11.2,8.1,16.9,12.1c1.2,0.9,2.4,1.7,3.1,3.1c-1.7,0.9-4.5,1.9-2,4.2
		c3.5,3.2,5.2,7.8,8.7,10.8c7.2,6.2,7.5,15,9.3,23.2c1.1,4.8-2.1,9.5-0.6,14.3c0.9,2.6,0.1,4.3-1.6,6.2
		c-5.7,6.5-10.5,13.5-13.8,21.5c-0.5,1.2-0.5,3-2,3c-1.5,0-1.6-1.9-2.2-3c-1-1.7-1.2-3.6-0.2-5.3c1.8-3.2,2.2-7,3.7-10.2
		c4.8-10.1-0.3-18.4-4.7-26.5c-2-3.7-4.7-7.2-5.9-11.3c-1.2-4-4.2-6.2-7.1-8.7c-0.7-0.6-2-1.8-3-0.4c-0.8,1-0.5,2.3,0.7,3
		c3.1,1.8,4.2,5.1,6.1,7.8c7.4,10.4,10.2,22.4,9.6,34.8c-0.8,15.5-9.5,27.6-19.5,38.8c-8.5,9.6-19.9,14.5-30.8,20.5
		c-14.2,7.9-29.9,11.4-45.5,12.7c-20.1,1.6-40.2,0.1-59.8-6.5c-9.7-3.3-19.2-7.2-27.3-13.2c-7.6-5.6-16-11-20.2-20.1
		c-2.7-5.7-8.1-10.2-8.3-17.1c0-2.1-0.2-4.3-0.8-6.4c-2.7-9.9-1.1-19.4,3-28.6c1.4-3.2,3.2-6.2,4.3-9.4c0.6-1.7,0.1-3.8-2.4-4.1
		c-2.6-0.3-2.5,1.6-2.5,3.3c0,1.3,0.1,2.7-0.8,3.8c-7.4,8-6.3,18.7-8.9,28.2c-0.9,3.2-2.1,5.9-4.8,7c-3,1.1-5.9-0.7-7.6-3.3
		c-3-4.4-4.5-9.3-3.5-14.6c0.2-1.1,1.1-2.5,0.1-3.3c-4.7-3.4-2.1-6.9-0.3-10.5c1.2-2.3,1.2-3.9-2-3.8c3.9-9.6,6.7-19.8,14.9-27
		c2.7,0.5,2,1.9,1,3.6c-2.6,4.6-3.5,9.7-3,14.9c0.4,3.9,2.2,4.8,5.6,3.2c4-1.8,6.2-6.8,11.5-6.1c0.4,0,1-0.8,1.3-1.4
		c1.4-3.3,3-6.1,7.3-5.7c0.4,0,1-0.5,1.1-0.9c1.8-4.2,6-5.6,9.3-7.9c2.3-1.7,4.3-3.1,4-6.3c-0.1-0.8,0.2-2.1,1.2-1.7
		c5.7,2,9.9-2.7,15-3.3c5.3-0.6,8.5-5.9,13.9-6.3c3.2-0.2,6.1-1.6,9-2.2c3.8-0.8,7.2-3.9,11-3c2.2,0.5,4.4,1,6.2,0.1
		c4.6-2.3,9.3-1.2,13.9-0.9c1.2,0.1,3.1-0.7,3.2,1.3c0.1,1.3-1.3,2.4-2.7,2.5c-3.6,0.3-8.4,1.9-10.6,0.6c-5.8-3.3-9.2,1.4-13.2,2.7
		c-4.1,1.3-6.6,6-11.8,6.5c-2,0.2-3.8,1.3-6,0.1c-2-1.1-4.2-1.1-6.3,0c-2.1,1.1-5.7,1.6-4.5,4.8c1,2.6,4.2,5,7.1,4.1
		c6.1-1.8,9,0.5,10.6,6c0.7,2.3,2.8,3.4,4.1,2.1c3.2-3.3,6.7-1.6,10.2-1.6c2.9,0,5.6,0.2,7.7-2.5c1.8-2.3,4-1.8,5.5,0.1
		c1.6,2,2.8,2.6,4.8,0.8c0.8-0.7,1.9-0.3,2.8,0.1c7.5,3.6,15.2,5.8,23.6,3.8c1.2-0.3,2.4,0.4,2.9,1.5c0.7,1.4-0.6,2.3-1.5,2.8
		c-2.1,1.2-4.4,2.2-6.6,3.2c-2.7,1.4-2.9,3.2-0.4,4.7c4.6,2.8,9.3,5.3,14.1,7.9c0.5,0.3,1.4,0.4,1.9,0.2c3.9-2.1,6.2,5.2,10.5,1.9
		c0.5-0.4,1.2,2,1.3,3.3c0.2,2.4,1.3,3.2,3.7,2.3c1.2-0.5,2.5-0.9,3.8-1.1c6.8-1.1,6.7-1,3.6-7.4c-1.1-2.3-2.5-2.7-4.7-2.7
		c-1.4,0-3.4,0.6-4.2-0.9c-2.3-4.4-6.1-6.3-10.6-7.4c-1.5-0.4-1.9-1.8-1.6-3.3c0.4-1.6,1.7-1.5,2.8-0.9c7.7,5.2,17.7,4.7,25.5,10
		c1.8,1.2,6.5,2.2,7.6-2.7c0.5-2.1,2-2.2,3.5-1.8c5.2,1.4,10.4,2.2,15.7,1.9c1-0.1,2.1-0.1,2.5,1.1c0.4,1.3-0.5,2.2-1.4,2.9
		c-1.3,1.1-2.7,0.9-4.2,0.5c-3.7-0.9-7,0.7-11.3,0.9c6.9,4,13.1,4.9,19.7,2.7c2.2-0.7,4.1,0.6,2.7,3.4c-0.9,1.9-1.4,3.7-1,5.8
		c0.3,1.7,1.6,3.2,3.1,2.2c2.3-1.5,4.2-3.8,4.8-6.6c0.5-2.4-1.1-3.5-2.9-4.6c-3-1.9-5.7-4-4.1-8.4c0.6-1.7,0.3-4.1-2-4.4
		c-8.5-1.2-11.5-7.8-15.4-14c-2.2-3.4-4.9-8.1-9.4-8c-3.2,0.1-4.9-0.7-6.8-2.7c-1.9-2-4.3-3.2-6.9-3.7c-2.1-0.4-5.5-0.3-4.9-2.7
		c0.8-3,3.8-0.8,5.9-0.4c0.6,0.1,1.2,0.5,1.9,0.6c9,2.6,17.2,7.3,26.6,8.6c1.7,0.2,3,1.2,3.1,3.3c0.1,3.1,1.9,4.4,4.9,4.5
		c2.8,0,5.8,2,8.2-1.3c0.9-1.2,2.3-0.2,2.7,1.1c0.6,1.7,1.5,2.6,3.3,2c1.7-0.6,2.9-1.8,2.9-3.7c0-3.1,0.3-6.4-0.4-9.4
		c-0.5-2.3-3.5-2.2-5.3-3.2c-1-0.6-1.8-1.5-2.6-2.3c-6.4-7.1-14.9-10.8-23.6-14.1c-2-0.7-4-1.3-6-2C255.3,79.3,251.9,79.1,252,76.8z
		"/>
	<path class="st13" d="M260.9,83.8c8.7,3.3,17.2,7,23.6,14.1c0.8,0.9,1.6,1.8,2.6,2.3c1.8,1,4.8,0.9,5.3,3.2c0.7,3,0.4,6.3,0.4,9.4
		c0,1.9-1.2,3.1-2.9,3.7c-1.8,0.6-2.7-0.3-3.3-2c-0.4-1.2-1.8-2.2-2.7-1.1c-2.4,3.3-5.4,1.3-8.2,1.3c-3,0-4.8-1.4-4.9-4.5
		c-0.1-2.1-1.4-3.1-3.1-3.3c-9.4-1.3-17.7-6-26.6-8.6c-0.6-0.2-1.2-0.5-1.9-0.6c-2.1-0.4-5.1-2.6-5.9,0.4c-0.6,2.4,2.8,2.3,4.9,2.7
		c2.6,0.5,5,1.8,6.9,3.7c1.9,1.9,3.6,2.7,6.8,2.7c4.5-0.1,7.2,4.6,9.4,8c3.9,6.2,6.9,12.9,15.4,14c2.3,0.3,2.6,2.7,2,4.4
		c-1.6,4.4,1.1,6.6,4.1,8.4c1.9,1.1,3.5,2.2,2.9,4.6c-0.6,2.8-2.5,5.1-4.8,6.6c-1.5,0.9-2.8-0.5-3.1-2.2c-0.3-2,0.1-3.9,1-5.8
		c1.4-2.9-0.5-4.2-2.7-3.4c-6.7,2.2-12.8,1.3-19.7-2.7c4.3-0.2,7.6-1.8,11.3-0.9c1.5,0.4,2.9,0.7,4.2-0.5c0.9-0.8,1.8-1.6,1.4-2.9
		c-0.4-1.2-1.5-1.2-2.5-1.1c-5.4,0.3-10.6-0.5-15.7-1.9c-1.4-0.4-3-0.3-3.5,1.8c-1.1,4.8-5.8,3.9-7.6,2.7c-7.8-5.4-17.8-4.8-25.5-10
		c-1-0.7-2.3-0.8-2.8,0.9c-0.4,1.4,0.1,2.9,1.6,3.3c4.5,1.2,8.3,3.1,10.6,7.4c0.8,1.5,2.7,0.9,4.2,0.9c2.1,0,3.5,0.4,4.7,2.7
		c3,6.4,3.2,6.2-3.6,7.4c-1.3,0.2-2.6,0.6-3.8,1.1c-2.4,1-3.5,0.1-3.7-2.3c-0.1-1.3-0.8-3.7-1.3-3.3c-4.3,3.3-6.6-3.9-10.5-1.9
		c-0.5,0.3-1.4,0.1-1.9-0.2c-4.7-2.6-9.5-5.1-14.1-7.9c-2.5-1.5-2.3-3.4,0.4-4.7c2.2-1.1,4.5-2,6.6-3.2c0.9-0.5,2.1-1.4,1.5-2.8
		c-0.5-1.1-1.7-1.8-2.9-1.5c-8.4,2-16.1-0.1-23.6-3.8c-0.9-0.5-2-0.8-2.8-0.1c-2,1.8-3.3,1.1-4.8-0.8c-1.5-1.9-3.8-2.4-5.5-0.1
		c-2.1,2.7-4.8,2.5-7.7,2.5c-3.4,0-7-1.8-10.2,1.6c-1.2,1.3-3.4,0.2-4.1-2.1c-1.6-5.4-4.6-7.8-10.6-6c-2.9,0.9-6.1-1.4-7.1-4.1
		c-1.2-3.2,2.5-3.7,4.5-4.8c2-1,4.3-1.1,6.3,0c2.2,1.2,3.9,0.1,6-0.1c5.2-0.5,7.7-5.2,11.8-6.5c4-1.3,7.4-6,13.2-2.7
		c2.2,1.3,7-0.3,10.6-0.6c1.4-0.1,2.8-1.2,2.7-2.5c-0.1-1.9-2-1.2-3.2-1.3c-4.7-0.4-9.3-1.5-13.9,0.9c-1.8,0.9-4,0.4-6.2-0.1
		c-3.9-0.9-7.2,2.3-11,3c-3,0.6-5.9,2-9,2.2c-5.4,0.4-8.6,5.7-13.9,6.3c-5.1,0.6-9.3,5.2-15,3.3c-1-0.3-1.3,0.9-1.2,1.7
		c0.3,3.2-1.6,4.6-4,6.3c-3.3,2.4-7.5,3.7-9.3,7.9c-0.2,0.4-0.8,0.9-1.1,0.9c-4.2-0.4-5.9,2.4-7.3,5.7c-0.2,0.6-0.9,1.5-1.3,1.4
		c-5.3-0.7-7.6,4.3-11.5,6.1c-3.4,1.6-5.3,0.7-5.6-3.2c-0.5-5.2,0.4-10.3,3-14.9c0.9-1.7,1.7-3.1-1-3.6c1.1-3.7,4.3-5.7,7-8
		c1.7,1.6,4.2,1.6,5.4,0.5c3.3-3.2,6.6-6.7,7.6-11.5c1.3-1,2.7-2,4-3c1,0.2,3.3,0.1,2.5,1.3c-2.1,3-3.4,6.1-4.9,9.4
		c-0.9,2.1-4.1,4.7-7,5.9c-5.1,2.1-3.8,5.8-2.7,9.5c0.5,1.7,1.5,2.2,3,1.3c2.6-1.5,6-2.3,5.2-6.7c-0.5-2.8,1.3-3.9,4-3.7
		c1.5,0.1,3.2,1,4.4,0.5c2.5-1,7.9,1.2,7.1-3.6c-0.7-4.5,3.5-3.8,4.4-6.2c1.9-5,4.5-1.6,7-0.5c2.3,1.1,3.7,1.3,5.4-1.8
		c1.4-2.6,3.7-6.5,8.3-4.7c1.5,0.6,2.5-0.4,3.5-1.4c1.3-1.4,3.1-1.9,4.6-1.1c4.8,2.5,8.7-0.8,12.8-1.7c4.3-1,9.2-2.6,7.8-9
		c5-2.9,3.6-5.6-0.1-8.5c-0.5-0.4-0.2-1.9-0.3-2.9c14.1-3.4,28.5-3.4,42.9-2.9c10,0.3,19.9,2,29.7,4.3c2.2,0.5,4.3,0.5,6.4,0.6
		c2.2,3,5.7,3,8.8,3.8c1.7,0.4,3,1,4.2,2.2c0,2.3,3.4,2.5,3,5c-1.2,0.6-2.3,1.2-3.6-0.1c-6.8-6.8-16.4-5.8-24.5-9
		c-5.9-2.4-12.6,2.4-17.9-2.8c-0.3-0.3-1,0.1-1.5-0.1c-4.1-1.8-8.2,0.1-12.2,0.1c-6.8,0-8.7,2-8.3,8.8c0.1,0.9-0.3,2.2,0.9,2.6
		c1.2,0.4,1.7-0.7,2.2-1.6c1-1.8,1.1-4.4,4.3-3.8c2.7,0.5,3.1,2.7,3.8,4.7c2.3,6.6,3.3,7.5,10.3,6.1c8.5-1.7,16.4-0.3,23.9,3.8
		c2,1.1,4,2.3,6.5,2.4c4.7,0.2,9,1.5,12.6,4.8c2.3,2.1,6.6,0.4,6-0.8C254.6,91,257.8,87.6,260.9,83.8z M226.1,95.4
		c-4.9-4.1-15.3-5.7-22.9-3.8c2.3,2.7,4.4,5,8.2,2.9c1.4-0.8,2.8-0.7,4.2,0.1C218.7,96.4,222,95.9,226.1,95.4z M185.1,90.1
		c4.4,4.9,9.9,6,14.4,3.3c0.9-0.5,1.5-1.3,1.3-2.4c-0.2-1.3-0.9-2-2.4-1.9C194.2,89.5,190,89.7,185.1,90.1z M253.7,121
		c-1.3,1.6-5.1-0.4-5.1,2.9c0,1.4,2.5,3.7,4.2,3.3c1.8-0.4,3.5-2.4,3.7-4.6C256.6,121.3,255.3,120.8,253.7,121z"/>
	<path class="st11" d="M56.1,141.8c3.2-0.1,3.2,1.4,2,3.8c-1.7,3.5-4.3,7,0.3,10.5c1,0.7,0.1,2.1-0.1,3.3c-1,5.4,0.5,10.2,3.5,14.6
		c1.8,2.6,4.7,4.5,7.6,3.3c2.7-1,3.9-3.7,4.8-7c2.6-9.5,1.6-20.2,8.9-28.2c1-1.1,0.8-2.5,0.8-3.8c0-1.7-0.1-3.6,2.5-3.3
		c2.5,0.3,3,2.4,2.4,4.1c-1.1,3.2-2.9,6.3-4.3,9.4c-4.1,9.2-5.7,18.7-3,28.6c0.5,2.1,0.7,4.2,0.8,6.4c0.2,7,5.6,11.4,8.3,17.1
		c4.2,9,12.6,14.4,20.2,20.1c8.1,6,17.5,9.9,27.3,13.2c19.5,6.6,39.7,8.2,59.8,6.5c15.6-1.3,31.3-4.8,45.5-12.7
		c10.8-6,22.3-10.9,30.8-20.5c10-11.3,18.7-23.3,19.5-38.8c0.6-12.4-2.1-24.4-9.6-34.8c-1.9-2.7-3-6-6.1-7.8c-1.2-0.7-1.4-2-0.7-3
		c1-1.3,2.3-0.2,3,0.4c2.9,2.4,6,4.7,7.1,8.7c1.2,4.2,3.9,7.6,5.9,11.3c4.4,8.1,9.5,16.5,4.7,26.5c-1.5,3.2-2,7-3.7,10.2
		c-0.9,1.7-0.7,3.6,0.2,5.3c0.6,1.1,0.7,3,2.2,3c1.6,0,1.6-1.9,2-3c3.2-8.1,8.1-15.1,13.8-21.5c1.7-1.9,2.5-3.6,1.6-6.2
		c-1.6-4.8,1.6-9.5,0.6-14.3c-1.9-8.2-2.1-17-9.3-23.2c-3.5-3-5.2-7.6-8.7-10.8c-2.5-2.3,0.3-3.3,2-4.2c2.1,0.5,1.6,3,3,4
		c0.8,1.4,1.2,3.7,2.4,4.2c5.1,2,6.4,6.7,8.6,10.8c0.6,3.6,2.4,6.8,4,10c3.9,11.8,4.9,23.8,2,36c-1.1,1.9-2.1,3.8-1,6
		c0,0.7,0,1.3,0,2c-1.3,0-2,0.7-2,2c-2.8,8.4-8.3,15.2-13.7,22c-3.9,4.8-8.2,9.3-12.3,14c0,0,0,0,0,0c-1.3,0-1.9,0.7-2,2
		c-1.4,0-2.7,0.1-3.6,1.2c-3.2,3.6-7.6,5.7-11.3,8.7c-3.2,2.5-7.8,2.5-10.1,6.1c-7.6,2.2-14.7,5.8-22.1,8.5
		c-7.8,2.8-15.9,4.8-23.8,6.2c-14.5,2.5-29.2,3.9-44,3.4c-13.1-0.5-25.7-4.3-38.5-6.3c-13.8-2.2-25.8-9-37.7-15.3
		c-10.8-5.7-20.6-13.6-28-23.5c-7.2-9.7-14.6-19.7-14.7-32.8c-0.5-5,1.2-10.1-0.9-15C53.8,153.1,54,147.2,56.1,141.8z"/>
	<path class="st6" d="M160,68.8c0.1,1-0.2,2.5,0.3,2.9c3.7,2.9,5.1,5.6,0.1,8.5c1.4,6.4-3.5,8-7.8,9c-4.1,0.9-8.1,4.2-12.8,1.7
		c-1.5-0.8-3.3-0.2-4.6,1.1c-0.9,1-2,2-3.5,1.4c-4.6-1.7-6.9,2.2-8.3,4.7c-1.7,3.1-3.1,2.9-5.4,1.8c-2.5-1.2-5.1-4.6-7,0.5
		c-0.9,2.4-5.1,1.6-4.4,6.2c0.8,4.8-4.6,2.6-7.1,3.6c-1.2,0.5-2.9-0.4-4.4-0.5c-2.6-0.2-4.5,1-4,3.7c0.8,4.4-2.6,5.1-5.2,6.7
		c-1.5,0.9-2.5,0.4-3-1.3c-1.1-3.8-2.4-7.4,2.7-9.5c2.9-1.2,6.1-3.8,7-5.9c1.4-3.3,2.7-6.4,4.9-9.4c0.8-1.2-1.4-1.1-2.5-1.3
		c1-2.4,3.6-2.2,5.4-3.1c9.2-4.7,17.8-10.4,27.7-13.8c4.6-1.6,9.3-1.9,13.8-3.1c3.9,3.5,6.7,1.6,9-2C153.8,69.3,157,69.5,160,68.8z"
		/>
	<path class="st3" d="M59,293.7c4.1,2.7,6.5-1.9,9.9-2.3c1-0.1,0.7-1.2,0.4-2.1c-0.9-2.7-1.1-5.8-2.7-7.9
		c-3.8-5.3-5.8-11.6-6.6-17.4c-1.4-11.4-10.1-21.1-7.1-33.3c-3.8-7.4-1.6-16.2-5.4-23.6c-2.3-4.5-2-4.9,3.4-5.3c0,0.3,0,0.7,0,1
		c0,0.8,0.2,1.6,1,2l0,0c0,0.8,0.1,1.6,1,2l0,0c0.3,0.3,0.7,0.7,1,1l0,0c0,0.9,0.2,1.6,1.1,2c0.3,0.3,0.6,0.6,0.9,1
		c1,2.7,2,5.4,3,8.1c-0.7,5.1,0.4,9.4,4.9,12.5c1.4,1,1.9,2.5,2.2,4.2c0.5,2.8,2,3.9,5,2.8c1.2-0.5,2.6-0.4,3.9-0.5
		c2.3,1,3.3,3.4,5,5c0.2,1.3,0.4,2.5,2,1c1.6,1.4,3.9,1.9,5,4c0,0.3,0,0.7,0,1c-3.6-0.4-5.4,1-5,4.8c0.1,1.1,0.3,2.5-1.2,3
		c-1.1,0.4-2-0.3-2.6-1.1c-2.2-2.7-5.6-4.2-6.6-8.4c-0.6-2.6-3.7-4.9-6.1-6.7c-1.9-1.4-3.4,0.6-4.2,2.3c-0.6,1.4,0,2.9,0.2,4.4
		c1,8.5,6.1,16,5.7,25.1c-0.4,8.1,1.7,15.4,10.5,18.6c2.1,0.8,3.6,2.5,4.8,4.3c2.2,3.1,4.7,6,7.6,8.4c2.3,1.9,3.6,4.3,4.3,7.1
		c0.3,1.3,1.2,2.8-0.1,3.7c-1.2,0.8-2.5-0.4-3.5-1.2c-3.9-2.7-7.8-4.5-11.8-0.2c-3.7,0.1-5.6-2.9-8.2-4.8c-1.6-1.1-3-2.4-4.8-3.2
		c0-0.8-0.2-1.6-1-2c0-1.3-0.7-2-2-2c-0.3-0.3-0.7-0.7-1-1C61.7,297.4,58.8,296.3,59,293.7z M77.9,244c-0.3-1.3-1-2.1-2.3-2.1
		c-0.8,0-1.3,0.5-1.1,1.2c0.3,1.1,1.1,2,2.4,2.2C77.7,245.4,77.8,244.7,77.9,244z M76.5,247.8c-0.5,0.4-1.1,0.8-1,0.9
		c0.2,0.5,0.5,1.2,1,1.4c0.6,0.3,1.4,0.1,1.2-0.8C77.5,248.9,76.9,248.4,76.5,247.8z"/>
	<path class="st11" d="M320.9,120.7c0-1.5,0-2.9,2-3c1.6,0.9,0.2,4,3,4c2.3,6.7,5.3,13.3,6.9,20.1c4.3,18.6-0.5,36.3-8.9,52.6
		c-4.2,8.2-10.6,15.8-17.8,22.3c-4.4,4-9.8,6.8-13.2,11.9c-0.3,0-0.6,0-1,0.1c-1.3,0-2,0.7-2,1.9c-1.7,1-3.3,2-5,3
		c-2.7,1.2-5.7,1.8-7,5c-1,0.3-2,0.7-3,1c-2.7,0.6-5.6,1-7,4c-1.9,0.1-2.8,2.6-5,2c-3.5,1-7.2,1.2-10,4c-0.7,0-1.3,0-2,0
		c-1.3,0-2,0.7-2.1,1.9c-0.8,0-1.7-0.1-2.5,0.1c-15.8,4.7-31.9,8.2-48.3,9.7c-5.7,0.5-11.6,1-17.3,0.7c-7.4-0.4-14.9,0.4-22.2-1.4
		c-1.5-0.4-3.3-0.6-4.7,0.9c-2.7,0.2-5.5-0.6-8,1.2c-0.9-2.5-3-2.2-5-2.1c-2.3-2-5.2-2.3-8-3c-8.2-1.6-15.7-5.8-24-7.1
		c-1.9-1.9-4.6-2.2-7-2.9c-1.1-3.5-4.5-3-7-3.9c-2.1-0.3-3.5-1.8-5-3.1c0.3-0.3,0.7-0.7,1-1c16.5,7.8,33.4,14.2,51.4,17.7
		c2.1,0.4,4.4,1.7,6.7,0.4c11,1.4,22,2.2,33.2,1.9c13.4-0.3,26.5-1.9,39.7-4.5c8.4-1.7,16.6-4.2,24.8-6.5
		c8.6-2.5,16.5-6.4,24.2-10.9c5.2-2.8,10.8-5,15.4-8.5c3.7-2.8,8.3-5,10.6-9.5c2.1-0.1,3.2-1.7,4.4-3c5.6-5.8,11-11.8,15.6-18.5
		c4.3-6.1,7.6-12.7,10.1-19.7c3.2-9.3,3.5-19.1,2.9-28.8c-0.3-1.8-0.7-3.5-1-5.3c-1.1-7.6-2.5-15.2-7-21.7
		C321.9,121.9,321.7,121.2,320.9,120.7z"/>
	<path class="st11" d="M156.1,53.7c0,2.2-0.9,4.7,1.9,6.1c-0.1,1.4-0.1,2.7-1.9,2.9c-13.7,1.6-26.4,6.9-39.3,11.4
		C108,77.2,99,81,91.5,86.5c-11.5,8.4-23.7,16.3-32,28.4c-6.5,9.5-13.5,18.8-15.9,30.5c-0.4,2.2-0.5,4.3-0.7,6.4
		c-3.6,2.8-1.2,6.7-1.9,10c-4-1.8-1.1-5.4-2-8c0.2-2.6,0-5.2,0.8-7.9c3.7-13.3,10-25.5,19.1-35.6c12.4-13.9,26.5-26.2,44.3-33.1
		c1.6-0.6,3.7-1,3.9-3.3c0.3,0,0.6,0,1,0c3.1-0.4,6.3-0.7,8-4l0,0c8.2-0.5,15.5-4,23-7c0.7,0,1.3,0,2,0c1.6-0.1,3.6,0.7,4.1-1.9
		c0.6,0,1.3,0,1.9,0c0.6,0.7,1.3,1,2.1,0.6c0.2-0.1,0.4-0.6,0.4-0.8c-0.5-1.3-1.6-0.7-2.5-0.9c-1-0.7-2-1.3-3-2
		c-0.4-2.1,1-3.4,1.9-5C149.4,52.4,153,50.3,156.1,53.7z"/>
	<path class="st7" d="M149.2,257.8c-2.3,1.3-4.6,0-6.7-0.4c-17.9-3.5-34.9-9.9-51.4-17.7c-1.1-1.2-2.4-1.9-4-2l0,0
		c-1.8-2.5-3.9-4.4-7-5c0,0,0,0,0,0c-4.5-5.3-10.4-9.1-15.6-13.5c-3.1-2.6-4.3-7.1-8.4-8.6c-0.3-0.3-0.6-0.6-0.9-0.9
		c-0.4-0.7-0.7-1.3-1.1-2c0,0,0,0,0,0c-0.3-0.3-0.7-0.7-1-1c0,0,0,0,0,0c0-0.8-0.2-1.6-1-2c0,0,0,0,0,0c0-0.7,0-1.3,0-2
		c1.6-0.1,2.9,0.2,3.8,1.7c3.6,5.5,9.1,9.3,13.5,14c13.6,14.6,30.8,23.9,49.5,29.7c9.1,2.8,18,7.3,27.8,7.6
		C148.2,255.8,148.9,256.5,149.2,257.8z"/>
	<path class="st6" d="M297,219.8c-2.3,4.5-6.9,6.6-10.6,9.5c-4.6,3.5-10.2,5.7-15.4,8.5c-0.8-5-4.8-3.8-8-4
		c2.4-3.6,6.9-3.6,10.1-6.1c3.7-2.9,8.1-5,11.3-8.7c1-1.1,2.3-1.2,3.6-1.2c1.3,0,2-0.7,2-2c0,0,0,0,0,0
		C293.9,214.3,296.3,215.5,297,219.8z"/>
	<path class="st3" d="M41,161.8c0.7-3.3-1.7-7.3,1.9-10c2.7,1.8,2.9,4.1,2.6,7.3c-0.7,7.4-2,14.9,2.7,22.1c2.2,3.3,0.7,8.5,4.1,11.9
		c0.2,0.2,0.1,1-0.1,1.3c-0.6,0.7-1.6,0.6-2.3,0.2c-1.3-0.8-1.9-2.8-3.9-2.7c-3.1-4.3-5.2-8.7-3.2-14.2c0.7-1.9,0.9-4.7-0.1-6.3
		C40.7,168.1,41.2,165,41,161.8z"/>
	<path class="st9" d="M41,161.8c0.1,3.2-0.3,6.4,1.7,9.5c1,1.5,0.8,4.4,0.1,6.3c-1.9,5.6,0.1,10,3.2,14.2c0,0.3,0,0.6,0,0.9
		c-2.8-1.2-5.4-2.6-6-6c0.2-1.7-1.4-2.6-2-3.9c1.5-3.3,2.2-6.7,0-10c0-1.3,0-2.6,0-3.9c-0.3-1.3-0.8-2.6-0.7-3.8
		c0.3-3.8-2.3-8,1.7-11.2C39.9,156.4,37,159.9,41,161.8z"/>
	<path class="st12" d="M91,95.8c-1,4.8-4.3,8.3-7.6,11.5c-1.2,1.1-3.7,1.1-5.4-0.5C81.6,102.2,86.1,98.8,91,95.8z"/>
	<path class="st12" d="M53,158.8c2.2,4.9,0.5,10,0.9,15c-1.7-0.3-2.1-1.5-1.9-2.9C52.5,166.8,51,162.6,53,158.8z"/>
	<path class="st13" d="M151,70.8c-2.4,3.6-5.1,5.5-9,2C144.5,69.9,147.9,71,151,70.8z"/>
	<path class="st11" d="M159,59.8c4-0.7,8.1-1.3,12.1-2C167.5,61.4,163.4,61.6,159,59.8z"/>
	<path class="st5" d="M52.1,202.7c0,0.7,0,1.3,0,2c-0.9-0.4-1-1.2-1-2C51.4,202.7,51.7,202.7,52.1,202.7z"/>
	<path class="st8" d="M151,348.7c-0.6-1.3-1.6-2-3-2c-0.4-3.3,0.9-6.8-0.9-10c0-2.7-0.1-5.3-0.1-8c0-1.8,0.1-3.7-0.1-5.5
		c-1.3-15.5-2.6-31-2.9-46.5c2.8,1.5,6,1,9,2.3c8,3.5,15.5,8.2,23.3,11.9c14.4,6.9,28.9,13.8,43.3,20.7c2.1,1,4.2,1.8,4.4,4.8
		c0.1,1.2,1.3,3.1,2.5,1.2c2-3.2,3.9-0.8,5.4-0.1c3.9,1.7,7.7,3.8,11.4,6c3.4,2,6.7,3.4,10-0.8c-0.2,5.1,0,4.8,4.2,7.5
		c6.9,4.4,14.4,7.6,21.7,11.1c11.5,5.6,23.1,10.8,34.6,16.5c3.8,1.9,8.2,2.6,11.8,5.1c8,5.5,16.2,10,26.6,8.8
		c4.5-0.5,9.3-0.8,13.9,0.7c1.6,0.5,3.1-0.3,3.9-1.7c1.7-2.9,4.5-4.1,7.3-5.6c5-2.7,10.3-5.2,12.8-10.9c0.3-0.7,1.2-1.1,1.8-1.6
		c-0.2,1.1-0.1,2.5-0.8,3.2c-3.1,3.6-2.3,6.7,0.7,9.7c-1.4,0-2.4,0.7-3,2c-3.2-1.4-4.4-0.2-4,3.1c0.1,1.3,0,2.6,0,3.9
		c-1.5-0.2-2.9-0.5-4.4-0.6c-2.4-0.2-5.2,0.1-6.1,2.3c-2.8,6.8-5.5,14.3-5,21.3c0.5,6.6-1.7,12.8-0.5,19.3c0.3,1.8,0.6,3.3,2.1,4.1
		c1.7,0.9,2.2-0.6,3-1.7c1.3-1.6,3.1-3.4,5-2.1c1.9,1.3,0.5,3.6,0,5.5c-0.7,2.4-2.6,2.8-4.7,2.9c-2.2,0.1-4.3-0.1-6.5,0.1
		c-2,0.2-4.4,1.6-3.5,3.3c2.9,5.2-1.2,7.5-3.5,10.7c-1.3,0-2.7,0-4,0c-4.8-2.1-9.7-3.7-15-4.3c-2.8-0.3-4,0.3-4.9,2.5
		c-0.9,2.2-1.3,4.4-1.1,6.8c-1.1-0.6-2.8-0.9-2.8-2.5c-0.2-3.4-1.2-5.4-5.1-6c-2.2-0.3-3.1-6.9-1.2-7.8c5.3-2.3,1.4-3.4-0.4-4.8
		c-1.6-1.2-3.4-2.1-5.5-2c-0.6-1.4-1.6-2-3.1-2c-0.9-1.7-0.8-3.5-0.9-5.3c-0.2-6.9,0.1-13.8,1.2-20.7c2-2.1,0.4-4.2-0.4-6
		c-1.3-3.2-3.3-6.1-4.8-9.2c-2-4.1-5.3-6.6-9.7-7.6c-3.3-5-8.8-7-13.4-10.3c-3.6-2.9-7.3-5.6-11.8-6.9c-5.3-1.8-10.4-4.3-16.2-4.2
		c-0.8-2.2-3-1.8-4.6-2.3c-7.9-2.4-13.3,1.6-13.3,9.9c0,12.1,0,24.3,0,36.4c-0.8,0.1-1.5,0.3-1.9,1.1c-2-0.3-4-0.7-6-1
		c-1.9-3.4-5.9-3.4-8.6-5.4c-7.2-5.5-15.5-9.1-23.6-12.8c-13.4-6.1-25.6-14.3-38.9-20.2C160.2,353.1,156,350.1,151,348.7z
		 M338.5,393.4c-0.4-0.4-0.9-0.8-1.4-1.1c-1.3-0.8-2.1-2.8-4.1-2.3c-0.3,0.1-0.8,0.8-0.7,1c0.6,2,2.4,2.6,4.2,3
		C337.2,394.1,338,394.9,338.5,393.4z"/>
	<path class="st14" d="M109,250.6c8.3,1.3,15.7,5.5,24,7.1c1.2,3.2,0.9,6.5,1,9.8c0.1,2.4-1.4,4.4-0.9,6.9c1.5,7,1,14-1.4,20.7
		c-1.1,3.1-0.7,5.4,1.8,7.5c2.8,2.3,3.9,5,2.7,8.8c-0.7,2.2-1.3,5.6,2.8,6.2c0,0.7,0,1.3,0,2c-2.2,0-4.3,0-6.2,1.1
		c-6,3.6-12.5,3.6-19.1,2.2c-2-0.4-3.6-0.3-4.6,1.7c-3.4,0.1-6.9-0.5-10.3,0.9c-0.4,0.2-1.1,0.3-1.4,0.1c-6.2-4.1-14-6-18.3-12.9
		c4-4.3,7.9-2.5,11.8,0.2c1.1,0.7,2.3,2,3.5,1.2c1.3-0.9,0.4-2.4,0.1-3.7c-0.7-2.8-2.1-5.3-4.3-7.1c-3-2.4-5.4-5.3-7.6-8.4
		c-1.2-1.7-2.7-3.5-4.8-4.3c-8.8-3.3-10.9-10.6-10.5-18.6c0.5-9-4.6-16.5-5.7-25.1c-0.2-1.5-0.8-3-0.2-4.4c0.8-1.7,2.3-3.7,4.2-2.3
		c2.4,1.8,5.5,4.1,6.1,6.7c1,4.2,4.4,5.6,6.6,8.4c0.6,0.8,1.5,1.5,2.6,1.1c1.5-0.5,1.3-1.9,1.2-3c-0.4-3.8,1.5-5.2,5-4.8l0.2,0.4
		l0.2-0.2l-0.4-0.2c0-0.3,0-0.7,0-1c3.8-2.4,5.6,0.8,7.2,3c2,2.8-0.8,3.7-2.7,5.1c-2.4,1.8-2.4,3.8,0.3,5.9c2.6,1.9,5.9,3.8,3.7,8.2
		c-0.8,1.6,0.3,3.4,1,4.7c1.8,3,2.9,6.3,4.2,9.5c0.6,1.5,1,4.2,3.5,3.2c2.3-0.9,4.3-2.8,3.5-5.8c-0.8-2.9-1.6-5.9-4.2-7.7
		c-4.3-3-3.4-6.6-1.8-10.4c2-0.1,1.8,5.4,3.4,2C107.1,260.9,112.3,256.7,109,250.6z"/>
	<path class="st5" d="M291,433.6c-0.8-2.5-3-3.2-5.1-4.1c-8.1-3.5-15.5-8.4-23.9-11.5c-2.2-0.8-2.5-4-5.1-4.4c-2.1-3.8-6.6-6.6-5-12
		c0,0,0,0,0,0c0.7,0,1.3,0,2,0c1.7,1.3,1.7,4.6,5,4c0.3,0.3,0.7,0.7,1,1c0.1,2,1.5,2,3,2c-0.2,2.2,0.8,3.2,3,3c0.8,1.8,2.3,2.1,4,2
		c0.7,1.3,1.2,2.9,2.8,3.3c7,1.8,13.4,6.7,21.2,4.7c7.4,3.1,14,8.1,21.9,10c1,2.2,1.9,4.5,5,4.1c0.1,1.1,0.6,1.8,1.8,2
		c3.1,0.4,5.1,2.8,7.6,4.3c1.8,1.1,2.7,2.8-0.4,3.7c-6.9-6.2-15.2-10-23.6-13.6c-1.1-0.5-2,0.5-2.2,1.5c-0.6,4.8-3,2.2-5.2,1.6
		c-2-0.5-3.2-4.1-6-1.6C292.3,433.6,291.6,433.6,291,433.6z"/>
	<path class="st3" d="M252,401.6c-1.6,5.4,2.9,8.2,5,12c-5.3,1.9-8.6-1.6-11.8-4.7c-1.2-1.1-1.9-2.5-3.6-3.2c-4.5-2-10.1-3-9-10.2
		c0.2-1.3-1.2-1.9-2.6-1.3c-3.1,1.3-4.6-0.3-5.8-2.9c-1.1-2.6-3.2-4.2-5.7-5.3c-5.8-2.5-11.1-5.8-17.1-7.9c-3.2-1.2-6-4.2-9.3-5.9
		c-12.2-6.1-24.3-12.4-36.5-18.5c-2.2-1.1-4.8-1.7-4.6-5c5,1.4,9.2,4.5,13.9,6.5c13.4,5.9,25.6,14.1,38.9,20.2
		c8,3.7,16.3,7.3,23.6,12.8c2.7,2,6.7,2.1,8.6,5.4C239.7,399.5,246,400.1,252,401.6z"/>
	<path class="st7" d="M385.9,445.6c0.1,3.4-2.1,5.5-4.6,7c-5.2,3.1-10.4,6.1-15.1,10c-0.6,0.5-1.6,0.8-2.2,0.7
		c-8.4-2-16.7-0.2-25,0.2c-4.4-6.6-12.4-7.9-18.4-12.2c-1.9-1.3-3.8-2.6-5.7-3.9c0.8-1.1,2-1,3.1-1c6.3,3.2,11.1,10.7,19.8,7.2
		c0.2-0.1,0.7,0.1,0.9,0.3c3.8,5.5,10.1,3.2,15.1,4.2c4.1,0.8,9,0,13-1.5C373.7,454.2,380.4,450.9,385.9,445.6L385.9,445.6z"/>
	<path class="st5" d="M147.1,336.7c1.8,3.2,0.5,6.7,0.9,10c-0.3,0-0.7,0-1,0c-0.8-0.1-1.8,0.1-2.4-0.3c-7.6-4.9-16.6-7.3-23.5-13.5
		c-1.7-1.5-3.6-3-6.1-3.2c-0.2-2.4,0.1-4.5,3.4-3.9c2.6,0.5,5.1,1.3,7.6,1.9c0.7,2.6,2.8,3.3,5.1,4
		C136.4,333.3,141.7,335,147.1,336.7z"/>
	<path class="st14" d="M317.9,446.6c-1.1,0-2.3-0.2-3.1,1c-0.3,0-0.5,0-0.8,0c0.1-3.5-2.8-4.1-5-5.4c-5.2-3.1-11.4-4.5-16.1-8.6
		c2.8-2.5,4,1.1,6,1.6c2.2,0.6,4.7,3.1,5.2-1.6c0.1-1,1.1-2,2.2-1.5c8.4,3.6,16.7,7.4,23.6,13.6c-1.5,0.9-2.9,0.9-4.6,0.4
		C322.9,445.2,320.3,445.3,317.9,446.6z"/>
	<path class="st3" d="M126,327.7c-2.5-0.6-5.1-1.4-7.6-1.9c-3.2-0.6-3.5,1.5-3.4,3.9c-0.3,0-0.7,0-1,0c-1.7-1.7-3.3-3.3-5-5
		c1-2,2.6-2.1,4.6-1.7c6.6,1.4,13.1,1.4,19.1-2.2c2-1.2,4.1-1.2,6.2-1.1c0,6.9,0,6.9-7.3,7.1c-0.9,0-1.8,0.6-2.7,0.9
		C128,327.7,127,327.7,126,327.7z"/>
	<path class="st2" d="M114,329.7c0.3,0,0.7,0,1,0c2.5,0.2,4.4,1.7,6.1,3.2c6.9,6.2,15.9,8.5,23.5,13.5c0.6,0.4,1.6,0.2,2.4,0.3
		c0.2,1.1,0.8,2.6,0.4,3.2c-0.9,1.2-2.1-0.2-3-0.6c-9.5-4.4-18.3-9.9-27.3-15C115.1,333.2,113.7,332.1,114,329.7z"/>
	<path class="st2" d="M292.9,433.6c4.7,4.1,10.8,5.5,16.1,8.6c2.2,1.3,5.1,1.9,5,5.4c-7.6-3.1-14.7-7.1-21.8-11.1
		c-1.3-0.7-1.1-1.8-1.2-3C291.6,433.6,292.3,433.6,292.9,433.6z"/>
	<path class="st7" d="M65,302.7c0.8,0.4,1,1.2,1,2c-2.5,1.6-3.9,0.1-4.9-1.9c-0.7-1.2-1.7-2.8,0.9-3.1c0.3,0.3,0.7,0.7,1,1
		C63.1,302,63.7,302.6,65,302.7z"/>
	<path class="st8" d="M369.9,176.7c-2.6-0.1-5.4,0.7-7.8-0.9c-3.6-2.4-5.4,0.3-6.6,2.7c-1.4,2.8-0.4,5.5,2.5,7.1
		c0.7,0.4,1.5,0.4,2.7,0.7c-1.6,2.2-3.5,1.4-5.1,1.4c-8.2,0.1-8.2,0.1-7.7,8c-1.4,0-2.5,0.7-3,2c-0.5,3.8-1.4,7.3-4.5,10.2
		c-0.6,0.5,1.4,3.1,3.4,2.3c5.8-2.2,9.2,2.6,13.6,4.4c1.8,0.7,2,2.5,1.1,3.8c-3.8,5.2-4.9,11.4-7.2,17.2c-1.1,2.6-2.7,4-5.1,5
		c-1,0.4-2.6,0.7-3,1.6c-2.2,4.3-4.6,8.4-8.3,11.7c-2.7-0.5-4.5,1.8-6.9,2c-0.4-0.8-1.2-1-2-1.1c-7.9,1.7-10.2,5.8-8,14.1
		c0.1,2.3-1.5,4.4-1,6.8c-2.2,0.9-4.2,2.7-6.9,2.1c-1.4-0.3-2.6-0.5-3-2.1c-1.6-6.1-1.8-6.1-7.6-3c-3.9,2-8.3,2-12,0.4
		c-6.2-2.6-8.6-1.9-10.6,4.6c-0.7,2.4-1.8,3.5-4.3,2.2c-1-0.5-1.8-2.7-3.2-1.2c-1.2,1.3-0.1,2.8,0.8,4c0.9,1.3,0.9,2.6-0.4,3.5
		c-1.4,0.9-2-0.4-2.8-1.2c-3.1-2.8-8.1-2.8-11-0.2c-1.6-2.1-4.5,1-6-1.5c-0.7-1.2-1.5-2-2.5-0.8c-0.9,1.1-0.6,2.4,0.8,3.3
		c1.3,0.9,3.1,1.2,3.7,2.9c-4.9-1.4-11-0.4-13-7c1.3-0.4,2.9,2,3.8-0.4c0.5-1.1,0.1-2.6-1-3c-3.7-1.3-6.5-4.7-10.8-4.6
		c-0.7,0-1.3,0-2,0c0.1-6.4,1.5-7.5,7.8-6c3,0.7,6,1.7,9.2,0.4c4-1.6,7.9-4.1,12.7-2.8c1.4,0.4,3.3-0.6,3.7-2
		c1.6-5.9,5.7-4.1,8.9-2.5c3,1.5,4.7-0.3,6.8-1.3c0.4-0.2,0.7-1.2,0.6-1.7c-0.1-0.8-0.8-0.8-1.6-0.6c-1.3,0.3-3.4,1.4-3.5-0.7
		c-0.1-1.6,1.8-3.7,3.7-3.3c8.2,1.7,13.2-3.2,18.1-8.3c1.8-1.9,2.5-3.9,0.6-6.1c1.1-3.4,4.6-2.8,7-3.7c2.8-1.1,4.9-2,3.4-5.6
		c-0.7-1.7,0.4-3.8,1.7-3.3c5.1,2.1,7.8-0.8,11.8-3.3c3.8-2.5,7.1-5.6,10.5-8.4c1.5-1.2,3.4-3.1,3.6-5.7c0.4-6.4,3.9-11.9,7.1-16.8
		c2.7-4.2,3.8-8.3,4.4-12.8c0.3-2.6-0.3-5.3-0.6-7.9c-0.2-2.2,0.5-3.6,3-3.4c0.3,0,0.7,0,1,0c0.5,4,3.6,2.7,6,3c1.7,0.3,3.3,0.7,5,1
		C363.3,173.3,367,174.2,369.9,176.7z M292.9,253.1c1.2,2.2,0.5,4.9,3.3,5.4c3.3,0.7,2.9-2.6,4.8-4.4
		C298,253.7,295.8,253.4,292.9,253.1z"/>
	<path class="st5" d="M415.9,132.8c0.2,2.5-1.2,4.3-2.6,6.1c-4.2,5.2-8.3,10.5-12.4,15.8c-5.2,6.7-11.2,12.7-15.2,20.3
		c-3.5,6.6-5.4,7.4-10.7,4.7c0-0.3,0-0.7,0-1c1.4-0.1,3,0.4,4.1-1c5.9-7.5,11.3-15.5,17.8-22.4C403.5,148.1,408.6,139.5,415.9,132.8
		z"/>
	<path class="st5" d="M348.9,167.8c-0.3,0-0.7,0-1,0c-2-5.1,0-11-3-16c-2-9-4-18-6-27c3.1,2,2.5,5.5,3.5,8.3
		c3.7,10.9,5.9,22.1,6.5,33.6C348.9,167.1,348.9,167.4,348.9,167.8z"/>
	<path class="st11" d="M378.5,162.2c1.7,0.8,3.7,1.2,4.8,2.4c0.9,1-0.8,2.5-1.6,3.2c-2.1,2-2.3,7.1-7.5,4.4
		c-2.5-1.3-2.8-2.2-1.2-4.3C374.7,165.8,376,163.5,378.5,162.2z"/>
	<path class="st7" d="M379,177.8c-1.1,1.4-2.7,0.9-4.1,1c-1.3-1.6-3-2.1-5-2c0,0,0,0,0,0c-2.9-2.5-6.6-3.4-10-5
		c2.3-2.3,4.4-0.3,6.4,0.4C370.7,173.8,374.8,175.9,379,177.8z"/>
	<path class="st14" d="M348.9,167.8c0-0.4,0-0.7,0-1.1c2.4,0.7,4.5,1.9,6,4C352.6,170.5,349.4,171.8,348.9,167.8z"/>
	<path class="st5" d="M338.9,124.8c-1.8-0.8-2.1-2.3-2-4C338.7,121.5,339.1,123,338.9,124.8z"/>
	<path class="st5" d="M336.9,120.8c-2.1-0.1-2-1.5-2-3C336.2,118.3,336.9,119.3,336.9,120.8z"/>
	<path class="st5" d="M334.9,117.8c-1.4,0-2-0.7-2-2.1C333.6,116.4,334.3,117.1,334.9,117.8z"/>
	<path class="st9" d="M339,254.8c7.7-8.5,13.9-18.3,21.2-27.1c7.4-9,13.9-18.8,21.7-27.5c3.5-3.8,6.7-5.6,11.5-2.8
		c0.7,0.4,1.6,0.3,2.4,0.4c-0.2,1,0,2.3-0.6,2.8c-5.5,5.4-9,12.2-13.8,18.2c-4.1,5.1-8.7,9.9-11.5,16c-6,8.3-12.1,16.6-18.1,24.9
		c-2.1,0.1-3.1,1.6-4,3.2c-2.2,4-5.4,7.3-8.3,10.8c-2.4,2.9-5.8,5.5-5.7,10c-3.9,5.1-7.8,10.2-11.7,15.3c-1.9,2.4-3.7,4.7,1.1,6.1
		c1.7,0.5,1.9,2.2,1.4,3.8c-0.5,1.3-1.4,2.5-2.9,0.8c0.2-1.6-0.7-2.4-2-3c-5.3-2.7-10.6-5.4-15.9-8c-1.1-0.5-2.6-1.7-3.5-0.3
		c-0.9,1.4,1.1,2.1,1.5,3.3c0,1.2-0.6,1.9-1.8,2.1c-0.7-2.3-4.8-3-3.4-6c1.4-3,4.6-2.1,7.2-2c2.6,0.1,4-1.1,5.8-2.9
		c4.2-4.1,6.5-9.7,11.2-13.2c2.8-1.2,3.9-4.1,5.6-6.2c3.5-4.7,7.8-8.9,9.5-14.7l0,0C338.5,258.6,339,256.9,339,254.8z M360.9,240.7
		c0.7-1.3,1.4-2.6,2.1-3.9c1-0.1,2-0.5,2.5-1.4c3-5.4,6.8-10.1,10.8-14.7c2.9-3.3,6-6.6,7.6-10.9c2.1-2.7,4.3-5.4,6.3-8.1
		c0.6-0.8,0.9-1.9-0.1-2.6c-0.7-0.5-1.8-0.4-2.2,0.3c-2.1,3.6-6.5,5.7-7.3,10.3c-1.5,0-2.6,0.9-3.2,2c-4.9,8.1-12.6,14.2-16.6,22.9
		c-6.7,7.1-12.7,14.8-18,23c-6.2,5.4-10.3,12.5-14.9,19.1c-4.3,6.2-10.3,11.2-12.6,18.8c-0.3,1-2.1,1.9-0.5,2.9
		c1.4,0.8,2.2-0.6,3.1-1.7c6.5-8.1,13.5-15.9,19.3-24.5c2.7-4,7.7-6.7,7.7-12.4c3.7-4.3,8.8-7.4,11-13c2-0.1,2-1.6,2-3
		c0.3-0.3,0.7-0.7,1-1C360.2,242.7,360.9,242,360.9,240.7z"/>
	<path class="st11" d="M399.9,197.8c2.9-2.6,1.6-3.9-1.3-5.2c-8.8-4-8.8-4.1-2.9-11.9c3.2-4.2,6.9-8,9.3-12.8
		c0.8-0.1,1.5-0.3,1.9-1.2c1.7,0,3.2,0.4,4.1,2c-4.2,5.3-8.4,10.7-12.6,16c-1.2,1.5-2.6,3.2-0.5,4.6c1.8,1.2,3.4-0.3,4.6-1.9
		c3.1-4.1,6.2-8.2,9.2-12.4c1.1-1.6,2.7-3.1,2.2-5.3c2.3,0.7,4.7,1.4,7,2c0,0.3,0,0.7,0,1c-5.5,2-7.4,7.1-10.4,11.3
		c-1.6,2.3-1.7,3.4,0.9,5c2.6,1.6,5.2,3.8,4.5,7.6c-0.8,2.3-3.6,3.4-4,6c-1.7,0.7-2.1,2.5-3,3.9c-5.3,5.2-9.4,11.4-13.5,17.5
		c-5,7.4-10.3,13.5-20.4,10.5c0-5.5,4.3-8.6,7.1-12.5C387.9,213.9,394,205.9,399.9,197.8z M388.8,219.6c-2.7,0.9-1.7,3.5-2.4,5.3
		c0,0,0.8,0.6,1.2,0.6c2-0.3,3-1.8,3.5-3.6c5.7-3.5,8.9-9.1,12-14.7c0.7-1.2,2.3-2.8,1-3.9c-1.5-1.4-3.1,0.3-4.3,1.3
		C394.9,208.7,391.3,213.8,388.8,219.6z"/>
	<path class="st11" d="M429.9,137.8c3.3,2.1,9.1,1.9,10.1,5.4c1,3.6-4.1,6.2-6,9.5c-3.1,5.2-8.1,9.1-10.1,15c-0.8,0.4-0.9,1.2-0.9,2
		c-2.7-0.1-4.4-2.5-7-3.1c0-0.3,0-0.6,0-0.9c2.1,0.2,3.7-0.5,5-2.4c4.1-5.7,8.5-11.3,12.7-16.9c0.8-1.1,3.4-1.9,0.9-3.8
		c-2-1.5-3.2-0.4-4.4,1.3c-2.1,2.9-3.8,6.1-7.1,7.9c-2,0.6-2.2,2.2-2.1,3.9c-1.7,2.3-3.4,4.7-5,7c-2,0.2-1.9,1.6-1.9,3
		c-1-0.4-2-0.8-3-1.1c-0.7-1-0.6-1.9,0-2.9C417.2,153.8,423.6,145.8,429.9,137.8z"/>
	<path class="st9" d="M328,255.8c2.5-0.2,4.3-2.5,6.9-2c0.4,0.8,1.2,0.9,2,1c-0.3,1.3-0.6,2.6-1,3.9c0,0,0,0,0,0
		c-6.4,4.8-9.9,12.1-15.1,18.1c-1.3-0.4-2.6-0.8-3.8-1.1c-0.6-2.4,1-4.5,0.9-6.8c4.2-2.7,6.2-7.2,9-11.1
		C327.7,257.3,327.9,256.6,328,255.8z"/>
	<path class="st3" d="M399.9,197.8c-6,8.1-12,16.1-17.9,24.3c-2.8,3.9-7.1,7-7.1,12.5c-1.7,0-3.3,0.1-5,0.1c2.8-6,7.4-10.9,11.5-16
		c4.8-5.9,8.3-12.8,13.8-18.2c0.6-0.6,0.4-1.9,0.6-2.8C397.2,197.8,398.6,197.8,399.9,197.8z"/>
	<path class="st7" d="M344.9,197.7c0.6-1.3,1.6-2,3-2c2.3,1.5,4.5,3.3,7.6,3c1.3-0.1,3.1,0.2,2.8,1.9c-0.3,1.7-1.8,0.5-2.8,0.4
		c-1.1-0.2-2.4-0.5-3.4-0.2C348.6,202.2,346.5,200.6,344.9,197.7z"/>
	<path class="st3" d="M406.9,166.7c-0.4,0.8-1.1,1.1-1.9,1.2c-1-1.5-4-1-4-3.6c0-1.8,1.3-2.4,2.9-2.5c0.4,0.4,0.7,0.7,1.1,1.1
		C404.7,164.6,406.3,165.3,406.9,166.7z"/>
	<path class="st9" d="M405,162.8c-0.4-0.4-0.7-0.7-1.1-1.1c2.3-1.7,4.6,0.7,7,0c-0.5,1-0.7,1.9,0,2.9
		C408.5,165.4,407.1,162.8,405,162.8z"/>
	<path class="st8" d="M369.9,176.7c2-0.1,3.7,0.4,5,2c0,0.3,0,0.7,0,1C373.1,179,370.5,179.6,369.9,176.7z"/>
	<path class="st5" d="M335.9,258.7c0.3-1.3,0.6-2.6,1-3.9c0.7,0,1.4,0,2.1,0C339,256.9,338.5,258.6,335.9,258.7z"/>
	<path class="st14" d="M360.9,439.6c2.3-3.1,6.4-5.5,3.5-10.7c-0.9-1.6,1.5-3.1,3.5-3.3c2.1-0.2,4.3,0,6.5-0.1
		c2.1-0.1,4-0.6,4.7-2.9c0.6-1.9,2-4.2,0-5.5c-1.9-1.2-3.7,0.5-5,2.1c-0.8,1-1.3,2.6-3,1.7c-1.6-0.9-1.8-2.4-2.1-4.1
		c-1.2-6.4,1-12.7,0.5-19.3c-0.5-7.1,2.1-14.5,5-21.3c0.9-2.2,3.7-2.5,6.1-2.3c1.5,0.1,2.9,0.4,4.4,0.6c0.3,2.7-0.9,6.8,4.2,5
		c1.5-0.5,3.7-1.7,3.9-4c2.5-0.4,2.1-2.1,1.5-3.7c-0.8-2.1-1.7-4.2-2.6-6.3c-3.1-3-3.9-6.1-0.7-9.7c0.6-0.7,0.5-2.1,0.8-3.2
		c0,0,0,0,0,0c2-0.1,2-1.5,2-3c0.1-2,1.5-3.1,3.1-4c1.4,0,2.9,0,2.9-2.1c2.1-5.5,5.4-10.5,8.9-15.1c8.7-11.5,17-23.2,24.2-35.8
		c2.2-0.2,2.7-2.3,3.7-3.6c2.3-3,3.5-6.7,6.2-9.4c2.4-0.7,4.8-1.3,4.2-4.8c-0.1-0.8,0.5-1.9,1.1-2.7c4-6,7.8-12.2,12.7-17.5
		c0,1.7,0.1,3.3,0,5c-0.2,3.7-0.1,6.6,4.5,8.3c4.6,1.7,4.4,4.1-0.3,6.5c-1.9,1-2.2,1.5-1,3.2c1.5,2,0.3,3.9-1.4,4.4
		c-2.7,0.8-1.4-1.8-1.8-2.9c-0.2-0.7,0-1.8-1.2-1.8c-1-0.1-1.6,0.8-1.6,1.5c-0.1,4.1-0.1,8.3,0,12.4c0,2,2.7,0.9,3.2,2.2
		c-5.9,9-8.7,19.4-14.3,28.3c-2.9,5.4-5.3,11-8.8,16c-9,13.1-17.9,26.1-25.6,40.1c-2.9,5.2-5.4,11-9.9,15.7
		c-2.4,2.5-6.8,4.5-6.7,9.1c-4.8,6.8-11.1,12.6-13.8,20.8c-1.2,3.5-2.6,7.1-6.5,8.1c-6.6,1.7-10.3,6.1-12.7,12.1
		C359.2,443.8,361.7,440.9,360.9,439.6z"/>
	<path class="st5" d="M395.9,402.6c-0.1-4.7,4.3-6.6,6.7-9.1c4.5-4.7,7-10.5,9.9-15.7c7.7-14,16.6-27,25.6-40.1
		c3.4-5,5.9-10.7,8.8-16c3-0.7,4.3-2.6,5.5-5.5c2.8-7.2,8.3-13,12.3-19.6c5.9-9.7,12.2-19.1,18.4-28.6c0.9-1.3,0.7-2.5,0.1-3.7
		c-0.9-2.1,0.3-3.9,1-5.7c0.7-1.9,2.6-1.9,4.3-1.6c1.8,0.3,2.5,1.6,2.4,3.2c-0.1,1.3-0.5,2.6-0.9,3.9c-1,3.4-3.5,7,2.3,8.9
		c2.3,0.8,1.5,3.8,1.6,5.9c-4.4,0.6-5.3,4.9-6.3,7.6c-1.6,4.5-4.6,8-7,11.9c-3,4.9-7.1,8.7-9.5,14.5c-2.5,6-7.1,11.8-10.2,17.8
		c-4.1,7.8-12.4,12.7-14.2,21.9c-0.3,1.4-2.2,2.4-3,3.8c-3.9,6.5-8.5,12.6-12.6,19c-3.1,4.7-6.7,9.6-11.2,13.5
		c-0.8,0.7-1.3,1.9-1.9,2.9c-1.7,0.9-3.2,2.1-3.8,3.8c-2.4,6.1-7.5,10.5-10.3,16.3c-0.6,1.3-1.8,2.4-3,3.2c-1.4,1-3,0.5-2.7-1.3
		C398.5,409.7,396.2,406.4,395.9,402.6z"/>
	<path class="st9" d="M42.4,202.9c-1.9-4-1.3-7.4-1.7-10.6C42.8,195.2,43.6,198.4,42.4,202.9z"/>
	<path class="st9" d="M44.6,214.7c-0.2-3.4-2.5-6.6-1-10.8C46,207.7,44.7,211.3,44.6,214.7z"/>
	<path class="st4" d="M38,182.8c0.6,1.4,2.2,2.2,2,3.9c-2.4-0.1-5.4,1-6-2.9c1.1-0.1,2.3,0.1,3-1.1c0,0,0.5,0,0.5,0L38,182.8z"/>
	<path class="st4" d="M29,185.7c0.1-2,1.6-2,3-1.9C31.9,185.8,30.5,185.8,29,185.7z"/>
	<path class="st3" d="M47.6,199.4c0.1,0.1,0.2,0.3,0.2,0.4c0,0.1-0.2,0.2-0.3,0.3C47.5,199.9,47.5,199.6,47.6,199.4z"/>
	<path class="st5" d="M39,153.7c-4,3.2-1.4,7.4-1.7,11.2c-0.1,1.2,0.5,2.6,0.7,3.8c-1.7,0-3.2-0.2-4-2c-1.2-8.3,1.8-16.1,2.8-24.1
		c0.2-1.8,0.8-3.2,2.1-4.7c4.7-5.7,4.1-8.4-1.9-10.2c-0.4-0.5-1.1-1.4-1-1.4c1.2-1,2.7-0.3,4-0.5c3.5,2.4,4-1.4,4.8-2.8
		c4.8-9.3,12.4-16.1,19.8-23.2c2.9-2.8,7-3.8,7.8-9.4c0.5-3.3,7.6-3.1,11.4-5.7c7.2-4.9,13.8-10.9,23.3-10.8
		c-0.3,2.3-2.3,2.7-3.9,3.3c-17.8,7-31.9,19.3-44.3,33.1c-9,10.1-15.4,22.3-19.1,35.6C39.1,148.5,39.2,151.1,39,153.7z"/>
	<path class="st14" d="M107.1,73.8c-9.5-0.1-16.2,5.9-23.3,10.8C80,87.2,72.8,87,72.4,90.3c-0.8,5.7-4.9,6.7-7.8,9.4
		c-7.4,7.1-15,13.9-19.8,23.2c-0.7,1.4-1.2,5.3-4.8,2.8c0.6-3.3,0.6-6.8,4.1-9c1.3-0.8,2.2-2.6,2.7-4.1c1.3-4.6,4-7.9,8-10.3
		c2.5-1.5,3.7-3.6,3.1-6.6c0.6,0,1.3-0.1,1.9-0.1c3.3,2.6,4.6-0.7,5.7-2.4c3.1-5.1,6.6-8.4,13-10.2c7.3-2.1,14.5-6,20-11.9
		c0.5-0.6,1.4-1.2,2.1-1.2c8.7,1.2,15.3-5.4,23.4-6.1c-0.1,2.5-2.8,1.9-3.9,3.2c-1.1,1.3-4,0-4.1,2.8c0,0,0,0,0,0
		c-3.2,0.2-6.1,1.1-8,4C107.7,73.8,107.4,73.8,107.1,73.8z"/>
	<path class="st14" d="M37.1,127.8c6,1.8,6.6,4.5,1.9,10.2c-1.3,1.5-1.9,2.9-2.1,4.7c-1,8-4.1,15.8-2.8,24.1c-1.7-0.4-3.3-0.7-5-1.1
		c-2.8-2.4-2.5-4.3-0.1-7.4c1.8-2.4,1.8-6.2,2.6-9.4C33.3,141.9,35.2,134.8,37.1,127.8z"/>
	<path class="st11" d="M29,165.7c1.7,0.4,3.3,0.7,5,1.1c0.8,1.8,2.3,2,4,2c0,1.3,0,2.6,0,3.9c-1.9,0-4-0.3-5,1.9
		c-2.6,0.1-5,1.8-7.7,0.9c-1.7-0.6-4.2-0.3-4.2-3.2c0-2.4,0.7-4.6,3.2-5.5C25.8,166.3,27.5,166.1,29,165.7z"/>
	<path class="st5" d="M33,174.7c1.1-2.2,3.1-1.9,5-1.9c2.2,3.3,1.5,6.7,0,10c0,0-0.5,0-0.5,0s-0.5,0-0.5,0c-1.3-0.4-2.6-0.7-3.9-1.1
		C32.5,179.3,35.6,177,33,174.7z"/>
	<path class="st5" d="M116,69.8c0.1-2.8,3-1.5,4.1-2.8c1.1-1.3,3.8-0.8,3.9-3.2c1.1-0.1,2.3,0.2,3-1c4-1,8-2,12,0
		C131.5,65.8,124.2,69.3,116,69.8z"/>
	<path class="st14" d="M139,62.8c-4-2-8-0.9-12,0c0.9-4.1,4.4-3.7,7.4-3.9c3.2-0.2,6.5,0,9.6-1.1c1,0.7,2,1.3,3,2c0,0.4,0,0.7,0,1.1
		c-0.6,0-1.3,0-1.9,0c-1.6,0.1-3.7-0.8-4.1,1.9C140.3,62.8,139.7,62.8,139,62.8z"/>
	<path class="st0" d="M320.9,120.7c0.8,0.4,1,1.2,1,2c-3.1-0.5-6,0.8-9,1c-2.2-4.1-3.6-8.8-8.6-10.8c-1.2-0.5-1.6-2.7-2.4-4.2
		c1.7-2.2,0-4.2-1-5.6c-2-3-1.9-5.5,0-8.3c4.6,5.6,10.2,10.1,14.6,15.9c1.9,2.6,5,4.4,3.8,8.4C319.2,119.5,320.4,120.2,320.9,120.7z
		"/>
	<path class="st3" d="M395.9,402.6c0.3,3.8,2.6,7.1,2.1,11.1c-0.2,1.8,1.4,2.3,2.7,1.3c1.2-0.9,2.4-2,3-3.2
		c2.8-5.8,7.9-10.2,10.3-16.3c0.7-1.7,2.2-2.9,3.8-3.8c0,1.3,0,2.7,0,4c-3.2,6.8-9.3,11.8-12,18.9c-2.1,1.5-3.4,3.6-4,6
		c0,0.3,0,0.6,0,0.9c-3.8,2.7-7.2,5.8-7,11c0,0,0,0,0,0c-0.7,0-1.3,0-2,0c-3.1,0.4-4.5,3.2-6.4,5.1c-1.3,1.3-1.2,4.2-4,3.7
		c-2.4-0.5-1.9-3-2.2-4.5c-0.6-3.2-2.3-3.3-3.7-1.2c-3.4,4.9-8.1,7-13.7,7.9c2.4-6,6.1-10.3,12.7-12.1c3.9-1,5.3-4.6,6.5-8.1
		C384.8,415.3,391,409.4,395.9,402.6z"/>
	<path class="st10" d="M457.9,157.8c11.4-0.3,22.1,1.8,31.5,8.9c1.5,1.2,2.4,2.6,3.5,4c4.3,6.9,3.6,13.2-2,19
		c-3.5-2.5-6.2-0.8-8.9,1.6c-1.1,0.9-1.6,2.4-3.5,2.4c-5.3-0.1-10.6,1.1-15.9-1.4c-5.4-2.5-10.9-4.5-16-7.9c-1.9-1.3-4-3-6.7-2.6
		c-0.7-2.7-1.3-5.3-2-8c0.9-3.9,3.2-6.6,6.4-9C448.4,161.6,453.7,160.7,457.9,157.8z M471.6,166.3c-1.3-0.4-1.4,0.5-1.8,1.3
		c-2.9,5.7-5.9,11.4-8.7,17.1c-0.5,1-2.2,2.8-0.1,3.8c1.8,0.8,2.4-1.2,3.2-2.4c3.4-5.5,4.9-11.8,8.7-17.1
		C474.3,167.1,472.6,166.8,471.6,166.3z"/>
	<path class="st8" d="M437.9,173.7c0.7,2.7,1.3,5.3,2,8c2,4.5,5.8,7.4,9,11c-3.9,1.7-7.6,2-10.8-1.3c-1.1-1.1-2.3-2.1-3.9-1.4
		c-1.8,0.8-1.1,2.6-1.2,3.9c-0.4,6-4.6,8.3-9.7,5.3c-0.9-0.5-2.2-0.4-3.4-0.5c-1.4-0.6-2.3-2.1-4-2c0.7-3.8-1.9-5.9-4.5-7.6
		c-2.5-1.6-2.4-2.8-0.9-5c2.9-4.3,4.9-9.4,10.4-11.3c3.1,3.5,5.7,2.4,8-1c1,0.3,2,0.7,3,1C433.9,173.1,435.8,174.1,437.9,173.7z"/>
	<path class="st2" d="M437.9,173.7c-2.1,0.4-4-0.7-6-1c0-1.3,0.1-2.8-1.3-3.5c-4.5-2.4-2.2-4.5,0.1-6.8c1.8-1.7,3.6-3.4,4.8-5.6
		c3.8-6.8,10.4-7.4,17.1-6.9c4.7,0.3,4,4.9,5.3,7.9c-4.2,3-9.4,3.8-13.6,7C441.1,167.1,438.8,169.9,437.9,173.7z"/>
	<path class="st2" d="M490.8,189.7c5.6-5.8,6.3-12.1,2-19c1.9,0.1,3.9,0.1,5.8,0.2c0.1,2.1,0.8,3.7,3.2,4c0,2.6,0,5.3,0,7.9
		c-1.2,0.6-2.3,1.5-2.8,2.7c-2.4,6.1-7.2,10.4-11.3,15.2c1.2-3.7-3.7-3.3-4-6C485.8,192.5,489.5,192.8,490.8,189.7z"/>
	<path class="st3" d="M428.9,171.8c-2.3,3.4-4.8,4.5-8,1c0-0.3,0-0.7,0-1c1.2-0.1,3.2,0.4,2-2c0-0.8,0.2-1.5,0.9-2
		C425.5,169,427.7,169.7,428.9,171.8z"/>
	<path class="st7" d="M487.8,200.7c4.1-4.8,8.9-9.1,11.3-15.2c0.5-1.3,1.5-2.1,2.8-2.7c0.6,3-0.6,5.6-2.5,7.8
		c-5.1,5.9-8.7,12.9-13.4,19.1c-12.5,16.6-23.8,34.2-35.4,51.4c-3,4.4-7.1,8.4-8.6,13.8c-0.5,0.1-1.2,0.1-1.4,0.4
		c-3.1,4.6-5.3,9.8-9.1,14c-1.1,1.2-1,3.2,1.5,3.6c-7.1,12.6-15.5,24.3-24.2,35.8c-3.5,4.6-6.8,9.6-8.9,15.1c-1.4,0-2.9,0-2.9,2.1
		c-1.6,0.9-2.9,2-3.1,4c-1.4,0.5-2,1.5-2,3c0,0,0,0,0,0c-0.6,0.5-1.5,1-1.8,1.6c-2.5,5.7-7.8,8.2-12.8,10.9
		c-2.8,1.5-5.6,2.7-7.3,5.6c-0.8,1.4-2.3,2.2-3.9,1.7c-4.6-1.5-9.3-1.2-13.9-0.7c-10.4,1.1-18.6-3.3-26.6-8.8
		c-3.6-2.5-7.9-3.1-11.8-5.1c-11.4-5.7-23.1-11-34.6-16.5c-7.3-3.5-14.8-6.7-21.7-11.1c-4.2-2.7-4.4-2.5-4.2-7.5
		c-3.3,4.2-6.6,2.7-10,0.8c-3.7-2.1-7.5-4.3-11.4-6c-1.5-0.7-3.4-3.1-5.4,0.1c-1.2,1.9-2.4,0-2.5-1.2c-0.2-3-2.3-3.8-4.4-4.8
		c-14.4-6.9-28.9-13.8-43.3-20.7c-7.9-3.8-15.3-8.4-23.3-11.9c-3-1.3-6.2-0.8-9-2.3c-1.5-4,0.3-7.5,1.9-11c1.4,0,2.8-0.1,3,1.8
		c0.3,4.2,3.4,4.8,6.6,5.3c0.9,0.1,2.3,0.3,2.7,0.9c3.3,4.8,8.8,5.4,13.7,7c1.1,1.7,2.3,3.6,4.3,3.8c6.5,0.7,11.8,4.4,17.2,7.3
		c13.1,6.8,27.3,11,40.2,18c5.3,2.9,12,3.1,16.3,7.7c4.1,4.3,6.7,3.5,9.5-1.2c1.3-2.1,3.9-3,6.6-2.6c2.4,0.4,2.8,2,2.8,4
		c-0.6,0-1.3,0-1.9-0.1c-1.7-1.5-2.7-1.2-3,1.1c-1.5,1.5-1.7,4.1-4,4.9c-0.8,0.3-0.8,0.7-0.1,1.2c0.7,0.3,1.3,0.7,2,1
		c8.9,5.7,18.5,9.7,28.1,13.9c3.8,2.2,7.5,4.7,11.6,6.5c4.6,2,5.7-2.6,7.7-5.1c2.2-2.9-0.6-3.5-2.4-4.5c-1-0.6-3.1-0.9-2.4-2.6
		c1.2-2.8-0.4-3.8-2.4-5c-1-0.6-1.1-1.6-0.1-2.4c1.5,0,3,0.2,3-2l0-0.1c3.8,1.6,7.7,3,5.5,8.5c-0.9,2.1,0.8,2.6,2.3,3
		c3.2,0.8,3.7,2,1.2,4.5c-1.3,1.3-1.8,3.5-2.9,5.1c-1.3,2-0.2,3.3,1.4,3.9c8.9,3.2,16.7,8.8,25.4,12.4c5.8,2.4,11.7,4.7,18.2,3.8
		c2.2-0.3,4.4-0.2,5-3c2,0,4,0,6,0c1.8,1.4,3.3,1.8,4-1c1,0,2,0,3,0c1.6,0,3.3,0.3,4.3-1.6c1.5-3,3.8-5.1,6.8-6.8
		c1.9-1.1,4.4-3.5,1.9-6.5c0.7-1,1.3-2,2-3c2.4,0.3,3.4-1.2,4.6-2.9c3.2-4.4,4.9-9.8,9.2-13.7c2.4-2.2,5.8-4.4,6.2-8.4
		c1.1,0,2.2,0,3-1.2c4.5-6.4,9-12.8,13.5-19.2c0.4-0.6,0-1.2-0.6-1.6c0-1,0-2,0-3c4.7-7.6,9.1-15.3,14-22.7c2.9-4.3,7.4-7.6,8-13.3
		l0,0c2.4,0.4,3.3-1.2,4-3c1.4-2.5,2.3-5.7,4.3-7.4c5.8-4.8,7.9-11.7,11.7-17.6c0,0,0,0,0,0c4-0.6,4.3-4.4,6-7
		c1.4-0.7,2.4-1.8,3-3.2C478.9,212.6,485.1,207.7,487.8,200.7z"/>
	<path class="st2" d="M432.9,292.7c-2.5-0.4-2.6-2.4-1.5-3.6c3.8-4.2,6-9.4,9.1-14c0.2-0.3,0.9-0.3,1.4-0.4c1,1.5,1.1,3.2,1,5
		c-2.7,2.7-3.9,6.4-6.2,9.4C435.6,290.4,435.1,292.5,432.9,292.7z"/>
	<path class="st14" d="M344.9,151.8c3,5,1,10.9,3,16c-2.5-0.2-3.2,1.2-3,3.4c0.2,2.6,0.9,5.3,0.6,7.9c-0.6,4.5-1.7,8.6-4.4,12.8
		c-3.2,4.9-6.7,10.4-7.1,16.8c-0.2,2.6-2.1,4.5-3.6,5.7c-3.5,2.8-6.7,5.9-10.5,8.4c-3.9,2.6-6.7,5.4-11.8,3.3
		c-1.3-0.5-2.4,1.6-1.7,3.3c1.6,3.6-0.6,4.5-3.4,5.6c-2.4,1-5.9,0.3-7,3.7c-1.5,0-2.3,1.1-3.4,1.8c-3.9,2.7-7.4,6-11.9,7.9
		c-4.1,1.8-9.1,0.7-11.8,6.9c-2.1,4.6-10.6,2.6-14.6,7.1c-0.1,0.1-0.7,0-0.9-0.2c-7.6-4.3-15-0.4-22.4,0.7
		c-8.1,1.2-16.1,3.1-23.9,5.8c-2,0.3-4-1.6-6,0c-0.7-0.3-1.3-0.7-2-1c0.5-1.6-2.9-2.4-1-4.2c1.3-1.2,2.7-0.4,4.2-0.2
		c5.6,0.9,11.7,1.8,16.8,0c12-4.2,24.9-4.7,36.6-9.7c4.7-2,11.4-1.5,12.4-8.8c0.7,0,1.3,0,2,0c1.6,1.5,1.8,0.3,2-1c0.3,0,0.7,0,1,0
		c6.7-0.5,11.9-4.3,17.1-7.9c4-2.8,8.9-5,10.9-10.1c0.1-1.9,1.7-2.4,3-3c5-2.2,8.7-5.9,12.6-9.6c5.3-5,5.2-14.4,14-16.2
		c0.2,0,0.4-0.6,0.3-0.9c-0.5-2.9,1.7-4.9,2.5-7.4c1.3-4.1,1.4-8.1,3.9-12.4c2.8-4.8,2.3-12.4,1.2-18.4c-0.7-4.4-1.4-8.7-1.5-13.2
		c0-0.8,0-1.7-0.3-2.4c-3-6.3-5.7-12.7-8-19.2c-0.3-0.9-0.7-3-2.6-1.3c-2.7-0.1-1.3-3.2-3-4c-3.3-6.7-7.5-12.6-13-17.6
		c-1.6-1.4-3.3-2.9-4.4-4.7c-0.9-1.6-1.7-3.9,1.3-4.7c6.9,6.1,11.3,14.1,17.2,21c5.3,6.3,8.8,13.7,11.4,21.1
		c1.8,5.1,6.4,9.3,5.9,15.4C341.2,149.9,342.6,151.7,344.9,151.8z"/>
	<path class="st7" d="M394.9,432.6c-0.2-5.3,3.2-8.3,7-11C401,426.2,397.9,429.4,394.9,432.6z"/>
	<path class="st7" d="M390.9,438.6c0,3.5-2.3,5.4-5,7c0,0,0,0,0,0C386.4,442.4,388.2,440.2,390.9,438.6L390.9,438.6z"/>
	<path class="st7" d="M401.9,420.6c0.6-2.5,1.9-4.5,4-6C406.1,417.6,405.5,420.1,401.9,420.6z"/>
	<path class="st7" d="M392.9,432.6c0.7,0,1.3,0,2,0c-0.7,2.4-0.9,5.2-4,6c0,0,0,0,0,0C391.6,436.6,392.2,434.6,392.9,432.6z"/>
	<path class="st1" d="M93.6,335c0.2-0.2,0.3-0.5,0.5-0.7c0.6,0.6-0.2,0.5-0.4,0.8C93.7,335.1,93.6,335,93.6,335z"/>
	<path class="st6" d="M260.9,83.8c-3.1,3.8-6.3,7.2-3.6,13c0.6,1.2-3.7,2.9-6,0.8c-3.6-3.3-8-4.6-12.6-4.8c-2.5-0.1-4.5-1.3-6.5-2.4
		c-7.5-4.1-15.4-5.5-23.9-3.8c-7,1.4-8.1,0.5-10.3-6.1c-0.7-2-1.1-4.2-3.8-4.7c-3.2-0.6-3.3,2-4.3,3.8c-0.5,0.9-0.9,2-2.2,1.6
		c-1.2-0.4-0.8-1.6-0.9-2.6c-0.4-6.8,1.5-8.8,8.3-8.8c4.1,0,8.1-1.9,12.2-0.1c0.4,0.2,1.2-0.2,1.5,0.1c5.3,5.2,12,0.4,17.9,2.8
		c8.1,3.2,17.7,2.3,24.5,9c1.3,1.2,2.4,0.7,3.6,0.1C257,82.5,259,83.1,260.9,83.8z"/>
	<path class="st12" d="M226.1,95.4c-4.1,0.5-7.4,1-10.4-0.8c-1.4-0.8-2.8-0.9-4.2-0.1c-3.8,2.1-5.9-0.2-8.2-2.9
		C210.9,89.7,221.2,91.3,226.1,95.4z"/>
	<path class="st12" d="M185.1,90.1c4.9-0.3,9.1-0.6,13.3-0.9c1.5-0.1,2.2,0.6,2.4,1.9c0.2,1.1-0.4,1.9-1.3,2.4
		C194.9,96,189.4,94.9,185.1,90.1z"/>
	<path class="st12" d="M253.7,121c1.6-0.1,2.9,0.3,2.8,1.6c-0.2,2.2-1.9,4.2-3.7,4.6c-1.7,0.3-4.2-1.9-4.2-3.3
		C248.6,120.6,252.4,122.5,253.7,121z"/>
	<path class="st13" d="M297,219.8c-0.7-4.3-3.1-5.4-7-4c4.1-4.7,8.4-9.2,12.3-14c5.4-6.8,10.9-13.6,13.7-22c1.3,0,2-0.7,2-2
		c0-0.7,0-1.3,0-2c3.5-1.5,2.1-3.8,1-6c2.9-12.2,1.9-24.2-2-36c2.7,2.3,6.5,4.1,6.3,8.1c-0.2,6.6-0.4,6.7,6.7,7.8
		c0.7,9.8,0.4,19.5-2.9,28.8c-2.4,7-5.8,13.6-10.1,19.7c-4.7,6.6-10,12.6-15.6,18.5C300.1,218.1,299.1,219.7,297,219.8z"/>
	<path class="st6" d="M329.9,149.8c-7-1.1-6.9-1.3-6.7-7.8c0.1-4-3.6-5.9-6.3-8.1c-1.6-3.2-3.4-6.4-4-10c3-0.2,5.9-1.5,9-1
		c4.5,6.5,5.9,14,7,21.7C329.2,146.2,329.6,148,329.9,149.8z"/>
	<path class="st12" d="M318.9,169.7c1.1,2.2,2.5,4.5-1,6C316.8,173.5,317.9,171.6,318.9,169.7z"/>
	<path class="st12" d="M317.9,177.7c0,1.3-0.7,2-2,2C316,178.4,316.6,177.8,317.9,177.7z"/>
	<path class="st13" d="M289.9,215.7c0,1.3-0.7,2-2,2C288,216.4,288.6,215.8,289.9,215.7z"/>
	<path class="st1" d="M109,250.6c3.3,6-1.9,10.2-3.9,14.7c-1.5,3.4-1.3-2.1-3.4-2c-1.6,3.8-2.5,7.4,1.8,10.4
		c2.6,1.8,3.4,4.9,4.2,7.7c0.9,3-1.2,4.9-3.5,5.8c-2.5,1-2.9-1.7-3.5-3.2c-1.3-3.2-2.5-6.5-4.2-9.5c-0.8-1.3-1.8-3.1-1-4.7
		c2.1-4.4-1.1-6.2-3.7-8.2c-2.7-2-2.7-4.1-0.3-5.9c1.9-1.4,4.7-2.3,2.7-5.1c-1.6-2.3-3.4-5.4-7.2-3c-1.1-2-3.4-2.6-5-4
		c-0.4-0.8-1.2-1-2-1c-1.7-1.7-2.7-4-5-5c0.2-2-3.1-4.7,1-6c1.3,0.7,2.5,1.2,4,1c0,0,0,0,0,0c1,3.6,3.7,4.7,7,5c0,0,0,0,0,0
		c0,2,1.1,2.9,3,3c1.5,1.3,2.9,2.7,5,3.1c1.7,2.5,4,3.8,7,3.9C104.5,248.4,107.1,248.7,109,250.6z"/>
	<path class="st14" d="M76,231.7c-4.1,1.4-0.8,4-1,6c-1.3,0.2-2.7,0.1-3.9,0.5c-2.9,1.1-4.5,0-5-2.8c-0.3-1.7-0.8-3.3-2.2-4.2
		c-4.5-3.1-5.6-7.4-4.9-12.5C64.7,223,70.4,227.4,76,231.7z"/>
	<path class="st9" d="M76,231.7c-5.7-4.3-11.3-8.7-17-13c-1-2.7-2-5.4-3-8.1c4.2,1.5,5.3,5.9,8.4,8.6c5.3,4.4,11.1,8.2,15.6,13.5
		C78.6,232.9,77.3,232.4,76,231.7z"/>
	<path class="st14" d="M77.9,244c-0.1,0.7-0.2,1.4-1.1,1.3c-1.2-0.2-2-1.1-2.4-2.2c-0.2-0.7,0.3-1.2,1.1-1.2
		C76.9,241.9,77.6,242.7,77.9,244z"/>
	<path class="st14" d="M76.5,247.8c0.5,0.6,1,1.1,1.1,1.6c0.2,0.9-0.6,1.1-1.2,0.8c-0.5-0.3-0.8-0.9-1-1.4
		C75.4,248.6,76,248.2,76.5,247.8z"/>
	<path class="st14" d="M80,242.7c0.8,0,1.6,0.2,2,1C80.4,245.2,80.2,244,80,242.7z"/>
	<path class="st1" d="M65,302.7c-1.3-0.1-2-0.7-2-2C64.3,300.7,65,301.4,65,302.7z"/>
	<path class="st5" d="M54.1,207.7c0.4,0.7,0.7,1.3,1.1,2C54.2,209.3,54.1,208.6,54.1,207.7z"/>
	<path class="st5" d="M52.1,204.7c0.8,0.4,1,1.1,1,2C52.2,206.3,52.1,205.5,52.1,204.7z"/>
	<path class="st5" d="M53.1,206.7c0.3,0.3,0.7,0.7,1,1C53.7,207.4,53.4,207,53.1,206.7z"/>
	<path class="st5" d="M325.9,121.8c1.9-1.6,2.3,0.4,2.6,1.3c2.4,6.5,5,12.9,8,19.2c0.3,0.7,0.3,1.6,0.3,2.4
		c0.1,4.4,0.8,8.8,1.5,13.2c1,6,1.6,13.6-1.2,18.4c-2.5,4.2-2.6,8.3-3.9,12.4c-0.8,2.5-3,4.4-2.5,7.4c0,0.3-0.2,0.8-0.3,0.9
		c-8.7,1.8-8.7,11.2-14,16.2c-4,3.7-7.6,7.4-12.6,9.6c-1.3,0.6-2.9,1-3,3c-3.3-0.8-4.7,3.8-8,3c3.4-5.1,8.8-7.9,13.2-11.9
		c7.2-6.5,13.6-14.1,17.8-22.3c8.4-16.3,13.2-34,8.9-52.6C331.2,135,328.3,128.5,325.9,121.8z"/>
	<path class="st3" d="M268,244.7c-1,7.3-7.7,6.8-12.4,8.8c-11.7,4.9-24.6,5.5-36.6,9.7c-5.1,1.8-11.2,0.9-16.8,0
		c-1.5-0.2-3-1-4.2,0.2c-2,1.8,1.4,2.6,1,4.2c-1.8,1.6-3.5,1.3-5.3,0c-5.5-3.9-14.4-1.9-17.7,4c-1.6-1.1-4.4-1.2-4.7-3.3
		c-0.6-4.2-3.5-3.6-6.3-3.8c-3.8-0.2-7.9,0.2-11-3c1.3-1.5,3.2-1.2,4.7-0.9c7.3,1.8,14.8,0.9,22.2,1.4c5.6,0.3,11.5-0.1,17.3-0.7
		c16.4-1.5,32.5-5,48.3-9.7c0.8-0.2,1.6-0.1,2.5-0.1c1.3,0,2-0.6,2.1-1.9c0.7,0,1.3,0,2,0c4.2,1,8,0.7,10-4c2.2,0.6,3.1-2,5-2
		C268,244.1,268,244.4,268,244.7z"/>
	<path class="st5" d="M146,265.7c-1.7,3.5-3.4,6.9-1.9,11c0.3,15.6,1.6,31.1,2.9,46.5c0.2,1.8,0.1,3.7,0.1,5.5c-1,0-1.9,0-2.7,0.7
		c-3.7,3-12.1,2-15.2-1.7c0.9-0.3,1.8-0.9,2.7-0.9c7.2-0.2,7.3-0.2,7.3-7.1c0-0.7,0-1.3,0-2c0.5-2.9,2.7-5.4,2-8.5
		c-2.3-9.9,0-20-1.3-29.8c-0.9-6.6-0.5-12.5,1.3-18.6c2,0,4.1-0.3,5,2.1C146,263.8,146,264.7,146,265.7z"/>
	<path class="st3" d="M141,260.7c-1.8,6.1-2.2,12.1-1.3,18.6c1.3,9.8-1.1,19.9,1.3,29.8c0.7,3.1-1.5,5.7-2,8.5
		c-4.1-0.6-3.4-4-2.8-6.2c1.1-3.8,0-6.5-2.7-8.8c-2.5-2.1-2.9-4.5-1.8-7.5c2.5-6.7,2.9-13.7,1.4-20.7c-0.5-2.4,1-4.5,0.9-6.9
		c-0.1-3.3,0.2-6.6-1-9.8C135.8,258.4,138.7,258.7,141,260.7z"/>
	<path class="st1" d="M146,265.7c0-0.9,0-1.9,0-2.8c2.5-1.7,5.3-1,8-1.2c3.1,3.1,7.2,2.7,11,3c2.8,0.2,5.7-0.5,6.3,3.8
		c0.3,2.1,3.1,2.2,4.7,3.3c0,0.7,0,1.3-0.1,2c-1.6,0-3.1,0-3.7,1.8c-0.6,2,1.3,1.9,2.3,2.6c1,0.7,2.4,1.3,1.8,3.1
		c-1.5-0.2-2.9-0.4-4.3-0.5c-4.9-1.6-10.4-2.2-13.7-7c-0.4-0.6-1.8-0.8-2.7-0.9c-3.3-0.5-6.3-1.1-6.6-5.3
		C148.8,265.6,147.3,265.7,146,265.7z"/>
	<path class="st3" d="M292.9,228.7c3.3,0.8,4.7-3.8,8-3c-2,5.1-6.9,7.4-10.9,10.1c-5.1,3.5-10.4,7.4-17.1,7.9c0.7-1.3,1.3-2.7,2-4
		c1-0.3,2-0.7,3-1c3.4-0.2,6.2-1.2,7-5c1.7-1,3.3-2,5-3c1.3,0,2-0.7,2-1.9C292.3,228.7,292.6,228.7,292.9,228.7z"/>
	<path class="st5" d="M263,245.7c-2,4.7-5.8,4.9-10,4C255.7,246.9,259.5,246.7,263,245.7z"/>
	<path class="st5" d="M274.9,239.7c-0.7,1.3-1.3,2.7-2,4c-0.3,0-0.7,0-1,0c-0.8,0-1.6,0.2-2,1c-0.7,0-1.3,0-2,0c0-0.3,0-0.7,0-1
		C269.3,240.7,272.2,240.4,274.9,239.7z"/>
	<path class="st5" d="M284.9,233.7c-0.8,3.8-3.6,4.8-7,5C279.2,235.5,282.3,234.9,284.9,233.7z"/>
	<path class="st5" d="M102,247.7c-3-0.1-5.4-1.4-7-3.9C97.5,244.7,100.9,244.2,102,247.7z"/>
	<path class="st9" d="M90,240.7c-1.9-0.1-3-1.1-3-3c1.6,0.2,2.9,0.8,4,2C90.7,240,90.4,240.4,90,240.7z"/>
	<path class="st5" d="M291.9,228.8c-0.1,1.3-0.7,1.9-2,1.9C290,229.4,290.6,228.7,291.9,228.8z"/>
	<path class="st5" d="M251,249.7c-0.1,1.3-0.8,1.9-2.1,1.9C249,250.4,249.6,249.7,251,249.7z"/>
	<path class="st5" d="M108,73.8c1.9-2.9,4.8-3.8,8-4C114.3,73.1,111.1,73.4,108,73.8z"/>
	<path class="st5" d="M141,62.8c0.4-2.7,2.5-1.8,4.1-1.9C144.6,63.4,142.6,62.7,141,62.8z"/>
	<path class="st5" d="M147,60.9c0-0.4,0-0.7,0-1.1c0.9,0.1,2-0.4,2.5,0.9c0.1,0.2-0.2,0.7-0.4,0.8C148.3,61.9,147.6,61.6,147,60.9z"
		/>
	<path class="st9" d="M87.1,237.7c-3.3-0.3-6-1.5-7-5C83.1,233.3,85.3,235.2,87.1,237.7z"/>
	<path class="st11" d="M315.9,431.6c-8-1.9-14.5-6.9-21.9-10c1-2.2,4.6-1,5-3.9c3.4-3.8,4.9-7.9,2.5-12.8c-1.4-2.8-2.3-5.8-2.8-9
		c-0.5-3-2.5-6.1-5.4-6.2c-2.1-0.1-2.1-0.2-2-1.8c0.4-3.9-2.7-4.9-5.2-4.6c-2.8,0.4-4-0.8-5.2-2.7c0.4-0.2,0.9-0.3,1.3-0.5
		c-0.4-0.2-0.9-0.3-1.3-0.5c-2-3.7-5.7-5.8-9.4-5.6c-3.9,0.1-7.4-0.9-11.1-1.1c-12.9-0.6-17.1,8-12.2,18.3c1.1,2.2,2.5,4.3,3.7,6.5
		c-0.7,0-1.4,0-2.1,0c-0.7,0-1.3,0-2-0.1c-0.7-1.1-1.9-1-3-1l0,0c-0.4-1-0.8-2-1.1-3c0-12.1,0-24.3,0-36.4c0-8.3,5.4-12.4,13.3-9.9
		c1.6,0.5,3.8,0,4.6,2.3c-3.5,4-2.3,7.5,1.2,10.7c4.5,4.2,6.3,4,13-1.5c4.3,0.4,7.6,3.9,12,4c0.4,2.4-2.5,3.7-1.7,6.4
		c2.1,6.6,9.3,8.9,14.5,4.5c3.2,4.4,7.8,7.6,11.5,11.5c2.5,2.6,2.1,6.8,5.6,8.4c-1.1,6.9-1.3,13.8-1.2,20.7c0,1.8-0.1,3.6,0.9,5.3
		c0,0.3,0,0.5,0,0.8C315.3,423.8,316.1,427.8,315.9,431.6z"/>
	<path class="st1" d="M392.9,432.6c-0.7,2-1.3,4-2,6c-2.6,1.6-4.5,3.8-5,7c-5.5,5.3-12.1,8.6-19.1,11.2c-4,1.5-8.9,2.3-13,1.5
		c-5.1-1-11.3,1.3-15.1-4.2c-0.2-0.2-0.7-0.4-0.9-0.3c-8.8,3.5-13.5-4-19.8-7.2c2.4-1.4,5-1.4,7.5-0.6c1.7,0.5,3.1,0.5,4.6-0.4
		c3.1-0.9,2.2-2.5,0.4-3.7c-2.5-1.5-4.5-3.9-7.6-4.3c-1.2-0.2-1.7-0.9-1.8-2c0.9-4.7,1.8-9.3,0-14l0,0c2.1-0.2,3.9,0.8,5.5,2
		c1.9,1.4,5.7,2.5,0.4,4.8c-1.9,0.8-1,7.4,1.2,7.8c3.9,0.6,4.9,2.6,5.1,6c0.1,1.5,1.7,1.8,2.8,2.5c4.9,2.2,10.1,0.3,15.1,1
		c4.8,0.7,7.7-0.3,5.9-6c1.3,0,2.7,0,4,0c0.8,1.3-1.7,4.2,2,4c5.5-1,10.3-3.1,13.7-7.9c1.4-2.1,3.1-2,3.7,1.2
		c0.3,1.5-0.2,4.1,2.2,4.5c2.8,0.5,2.7-2.4,4-3.7C388.4,435.8,389.7,433.1,392.9,432.6z"/>
	<path class="st14" d="M356.9,439.6c1.8,5.7-1.1,6.7-5.9,6c-5-0.7-10.2,1.2-15.1-1c-0.2-2.3,0.2-4.6,1.1-6.8
		c0.9-2.3,2.2-2.9,4.9-2.5C347.2,435.9,352.1,437.5,356.9,439.6z"/>
	<path class="st7" d="M276.1,358.7c-6.7,5.5-8.5,5.7-13,1.5c-3.5-3.2-4.7-6.7-1.2-10.7c5.8-0.1,10.9,2.4,16.2,4.2
		C278.5,355.8,277,357.1,276.1,358.7z"/>
	<path class="st7" d="M301,373.7c-5.2,4.4-12.4,2-14.5-4.5c-0.9-2.7,2.1-4.1,1.7-6.4c0.6-0.7,1.2-1.4,1.7-2.1
		c4.6,3.3,10.1,5.3,13.4,10.3C302.5,371.8,301.7,372.8,301,373.7z"/>
	<path class="st9" d="M301,373.7c0.8-0.9,1.5-1.8,2.3-2.8c4.4,1,7.7,3.4,9.7,7.6c1.5,3.1,3.5,6,4.8,9.2c0.8,1.8,2.3,3.9,0.4,6
		c-3.5-1.6-3.1-5.8-5.6-8.4C308.7,381.3,304.2,378.1,301,373.7z"/>
	<path class="st9" d="M392.9,375.6c-0.2,2.4-2.4,3.5-3.9,4c-5.1,1.8-4-2.3-4.2-5c0-1.3,0.2-2.6,0-3.9c-0.4-3.3,0.8-4.5,4-3.1
		C390.3,370.3,391.6,373,392.9,375.6z"/>
	<path class="st9" d="M129,327.7c3.2,3.7,11.5,4.7,15.2,1.7c0.9-0.7,1.8-0.7,2.7-0.7c0,2.7,0.1,5.3,0.1,8c-5.3-1.7-10.7-3.3-16-5
		c-2.2-0.7-4.4-1.5-5.1-4C127,327.7,128,327.7,129,327.7z"/>
	<path class="st9" d="M289.9,360.6c-0.6,0.7-1.2,1.4-1.7,2.1c-4.4-0.1-7.7-3.6-12-4c0.9-1.6,2.4-2.9,2-5
		C282.5,355.1,286.3,357.7,289.9,360.6z"/>
	<path class="st5" d="M248,397.6c0.7,0,1.3,0,2,0.1c0.4,0.6,0.7,1.3,1.1,1.9c0.3,0.3,0.7,0.7,1,1l0,0c0,0.3,0,0.7,0,1c0,0,0,0,0,0
		c-5.9-1.5-12.3-2.1-16-8c2,0.3,4,0.7,6,1c0.1,2,1.6,2,3,1.9c0,0,0,0,0,0C245.7,397.7,246.2,399.4,248,397.6z"/>
	<path class="st7" d="M392.9,375.6c-1.3-2.7-2.7-5.3-4-8c0.6-1.3,1.5-2,3-2c0.9,2.1,1.8,4.1,2.6,6.3
		C395,373.5,395.4,375.2,392.9,375.6z"/>
	<path class="st14" d="M338.5,393.4c-0.5,1.5-1.3,0.8-2,0.6c-1.8-0.5-3.5-1-4.2-3c-0.1-0.3,0.4-1,0.7-1c2-0.4,2.8,1.5,4.1,2.3
		C337.7,392.6,338.1,393,338.5,393.4z"/>
	<path class="st3" d="M245,396.6c-1.5,0.1-2.9,0.1-3-1.9c0.4-0.8,1.1-1,1.9-1.1C244.2,394.6,244.6,395.6,245,396.6z"/>
	<path class="st1" d="M317.8,420.4c0-0.3,0-0.5,0-0.8c1.5,0,2.5,0.6,3.1,2l0,0C319.7,421.6,318.5,421.7,317.8,420.4z"/>
	<polygon class="st3" points="87,248.7 87.4,248.9 87.2,249.1 	"/>
	<path class="st8" d="M317.8,420.4c0.7,1.3,1.9,1.2,3.1,1.2c1.8,4.7,0.9,9.3,0,14c-3.1,0.4-4-1.9-5-4.1
		C316.1,427.8,315.3,423.8,317.8,420.4z"/>
	<path class="st12" d="M299,417.7c-0.4,2.9-4,1.8-5,3.9c-7.9,2-14.2-2.9-21.2-4.7c-1.6-0.4-2.1-2-2.8-3.3c0,0,0,0,0,0
		c0.8,0.1,1.7,0,2.4,0.4c7.8,4.1,15.7,7.4,24.6,3.7C297.6,417.5,298.3,417.7,299,417.7z"/>
	<path class="st12" d="M251,399.6c-0.4-0.6-0.7-1.3-1.1-1.9c0.7,0,1.4,0,2.1,0c3.5,1.7,4.9,5.1,7,8l0,0c-3.2,0.6-3.3-2.7-5-4
		c-0.4-0.8-1.2-1-2-1c0,0,0,0,0,0C251.6,400.3,251.3,399.9,251,399.6z"/>
	<path class="st12" d="M265.9,411.6c-2.2,0.2-3.2-0.8-3-3c0,0,0,0,0,0C264.8,408.7,265.9,409.7,265.9,411.6L265.9,411.6z"/>
	<path class="st12" d="M269.9,413.6c-1.7,0.1-3.2-0.2-4-2c0,0,0,0,0,0C267.7,411.5,269.2,411.8,269.9,413.6L269.9,413.6z"/>
	<path class="st12" d="M262.9,408.6c-1.5,0-2.9,0-3-2l0,0C261.4,406.7,262.4,407.3,262.9,408.6L262.9,408.6z"/>
	<path class="st3" d="M252,400.6c0.8,0,1.6,0.2,2,1c-0.7,0-1.3,0-2,0C252,401.3,252,401,252,400.6z"/>
	<path class="st12" d="M259.9,406.6c-0.3-0.3-0.7-0.7-1-1c0,0,0,0,0,0C259.3,406,259.6,406.3,259.9,406.6L259.9,406.6z"/>
	<path class="st2" d="M172,280.7c1.4,0.2,2.9,0.4,4.3,0.5c0.7-1.9-0.8-2.4-1.8-3.1c-1-0.7-2.9-0.6-2.3-2.6c0.5-1.8,2.1-1.9,3.7-1.8
		c3.1,6.2,8.3,7.7,14.9,7.1c4.6-0.4,7.5-2.9,10.1-6.1c3-0.1,5.7,1.1,8.6,1.8c6.4,1.4,12.8,1.7,18.4-2.8c0.3,0,0.7,0,1,0
		c0.7,0,1.3,0,2,0c0.3,1,0.7,2,1,3c0.1,2.6,1.8,3.1,4,3c1,0.7,2,1.3,3,2c2,6.6,8.2,5.6,13,7c8.1,1.6,14.7,6.9,22.7,9.1
		c-0.6-0.7-1.2-1.4-1.8-2.1c2.5-2.6,5.2-4.4,9.2-3.2c1.9,0.6,3.9,0.3,4.3-2c0.5-2.5-1.9-1.6-3.1-2.1c-1.9-0.7-15,0.4-17.4,1.3
		c-3.3-1.7-6.7-3.3-10-5c2.9-2.6,7.9-2.6,11,0.2c0.9,0.8,1.5,2.1,2.8,1.2c1.4-0.9,1.4-2.2,0.4-3.5c-0.9-1.3-2-2.8-0.8-4
		c1.4-1.5,2.1,0.7,3.2,1.2c2.5,1.3,3.6,0.2,4.3-2.2c1.9-6.5,4.4-7.2,10.6-4.6c3.7,1.6,8.1,1.6,12-0.4c5.8-3,6-3,7.6,3
		c0.4,1.6,1.6,1.8,3,2.1c2.7,0.6,4.7-1.2,6.9-2.1c1.3,0.4,2.6,0.8,3.8,1.1c0,1,0,1.9,0,2.9c-4.7,3.5-7,9.1-11.2,13.2
		c-1.8,1.8-3.2,3-5.8,2.9c-2.6-0.1-5.8-1-7.2,2c-1.3,3,2.7,3.7,3.4,6c-2.7,5.9-7.6,10.3-11.1,15.7c-0.5,0.7-1,1.3-2,1.1
		c-1.2-0.4-0.7-1.2-0.5-2c1-3.3-1.9-3.3-3.6-4.3c-2.4-1.4-3.8,0.3-4.7,2.1c-2.5,4.6-5.6,5-9.2,1.4c0.1-2-0.3-3.6-2.8-4
		c-2.7-0.4-5.3,0.4-6.6,2.6c-2.9,4.7-5.4,5.5-9.5,1.2c-4.4-4.6-11-4.8-16.3-7.7c-12.9-7-27.2-11.1-40.2-18
		c-5.4-2.8-10.7-6.6-17.2-7.3C174.2,284.3,173,282.4,172,280.7z"/>
	<path class="st10" d="M229,273.7c-0.3,0-0.7,0-1,0c-3.3-3.1-6.8-2.3-10.5-0.8c-5.5,2.2-8.2,1-10.5-4.2c7.8-2.7,15.7-4.6,23.9-5.8
		c7.4-1.1,14.8-5,22.4-0.7c0.3,0.2,0.8,0.3,0.9,0.2c4.1-4.5,12.6-2.5,14.6-7.1c2.8-6.2,7.7-5.1,11.8-6.9c4.5-1.9,8-5.2,11.9-7.9
		c1.1-0.7,1.9-1.9,3.4-1.8c1.9,2.3,1.2,4.2-0.6,6.1c-4.9,5.1-9.9,10-18.1,8.3c-1.9-0.4-3.8,1.7-3.7,3.3c0.1,2.2,2.2,1.1,3.5,0.7
		c0.7-0.2,1.4-0.1,1.6,0.6c0.1,0.5-0.2,1.5-0.6,1.7c-2.1,1-3.8,2.8-6.8,1.3c-3.2-1.6-7.3-3.4-8.9,2.5c-0.4,1.4-2.3,2.4-3.7,2
		c-4.8-1.3-8.6,1.2-12.7,2.8c-3.2,1.3-6.2,0.3-9.2-0.4C230.5,266.2,229.1,267.3,229,273.7z"/>
	<path class="st14" d="M256,284.7c3.3,1.7,6.7,3.3,10,5c2,2.4,3.6,5.3,7,6c0.6,0.7,1.2,1.4,1.8,2.1c-8-2.2-14.6-7.5-22.7-9.1
		c-0.7-1.7-2.4-2.1-3.7-2.9c-1.3-0.9-1.7-2.2-0.8-3.3c1-1.3,1.8-0.4,2.5,0.8C251.4,285.7,254.4,282.6,256,284.7z"/>
	<path class="st2" d="M326.9,257.7c-2.8,3.9-4.8,8.3-9,11.1c-2.2-8.3,0.1-12.4,8-14.1C326,255.8,325.8,257,326.9,257.7z"/>
	<path class="st14" d="M239,281.7c-1-0.7-2-1.3-3-2c-0.1-2.6-1.8-3.1-4-3c-0.3-1-0.7-2-1-3c4.3-0.1,7.1,3.3,10.8,4.6
		c1.2,0.4,1.5,1.9,1,3C241.8,283.7,240.2,281.3,239,281.7z"/>
	<path class="st14" d="M292.9,253.1c2.9,0.4,5.2,0.7,8.1,1c-1.9,1.8-1.5,5.1-4.8,4.4C293.4,258,294,255.3,292.9,253.1z"/>
	<path class="st4" d="M326.9,257.7c-1.2-0.7-1-1.9-1-3c0.8,0,1.6,0.2,2,1.1C327.9,256.6,327.7,257.3,326.9,257.7z"/>
	<path class="st2" d="M360.9,362.7c-0.6,2.8-2.9,2.7-5,3c-6.5,0.9-12.4-1.4-18.2-3.8c-8.7-3.6-16.4-9.2-25.4-12.4
		c-1.6-0.6-2.7-1.9-1.4-3.9c1.1-1.7,1.6-3.8,2.9-5.1c2.5-2.5,1.9-3.7-1.2-4.5c-1.5-0.4-3.1-0.8-2.3-3c2.2-5.5-1.7-6.9-5.5-8.5
		c2.1-5.5,4.5-10.9,10.1-14c1.7-0.1,3.6,0.9,5-0.8c0.6,0,1.3,0,1.9-0.1c1.5,1.6,2.4,0.5,2.9-0.8c0.6-1.5,0.3-3.3-1.4-3.8
		c-4.8-1.4-3-3.7-1.1-6.1c3.9-5.1,7.8-10.2,11.7-15.3c0.7,0,1.3,0,2,0c2,1,4,2.1,5.9,3.1c-0.4,0.9-0.7,1.8-1.2,2.7
		c-3.4,7-3.9,13.7,0.3,20.7c6.4,10.6,16.7,14.7,27.9,17.6c-0.1,0.8-0.4,1.6-1.4,1.8c-9.5,2.6-9.9,3.2-9,12.5
		c0.2,2.3-1.4,3.1-3.3,3.5c-2.2,0.5-3.6-0.9-5.2-2.2c-3.4-3-5.1-2.3-6.1,2.3c-1,0.8-3.4,0.8-2.3,2.9c1.3,2.5,2,6.2,6.3,5.1
		c0.9,2.9,3.8,7.1,5,6.3C357.4,357.1,358.6,360.9,360.9,362.7z M338.8,335.7c-0.8,4.4-3.9,6.1-6,8.6c-0.8,1-1.1,2.1-0.7,3.3
		c0.2,0.7,0.9,0.7,1.6,0.5c3.9-1,7.7-6.7,7.1-10.8c-0.7-5-5.4-3.3-8.3-4.6c-1.2-0.5-2.7,0.1-3.3,1.5c-0.5,1.1-0.5,2.3,0.3,3.3
		c1,1.3,2.3,1.1,3.6,0.5C334.8,337.3,336.5,336.7,338.8,335.7z M354.7,339.6c-0.3-1.3-1.4-1.9-2.8-1.9c-0.9,0-1.8,0.4-1.7,1.4
		c0.2,1.8,1.8,2.2,3.2,2.4C354.3,341.6,354.8,340.8,354.7,339.6z"/>
	<path class="st2" d="M446.9,257.7c-0.6,5.7-5.1,9-8,13.3c-4.9,7.4-9.4,15.1-14,22.7c-6.7-3.4-6.7-3.4-4.1-10.6
		c0.5-1.4,0.6-2.7,0.4-4.3c-0.7-8.9-5.7-14.6-12.9-19.3c-14-9.3-35.4-9.8-47.4,3.1c-0.9,1-2,1.1-3.1,1.2c-2-0.7-3.9-1.4-5.9-2.1
		c0-0.7,0-1.3-0.1-2c6-8.3,12.1-16.6,18.1-24.9c1.7,0,3.3-0.1,5-0.1c10.1,2.9,15.4-3.2,20.4-10.5c4.1-6.1,8.2-12.3,13.5-17.5
		c0,1.5,0.9,2.4,1.8,3.4c1.2,1.3,1.2,2.1-0.7,2.8c-1.8,0.7-5,0.7-3.8,3.9c0.8,2.1-0.3,5.1,2,6.4c4.4,2.6,1.6,3.9-0.8,5.4
		c-1.3,0.8-2.6,1.5-3.9,2.3c-1.3,0.8-2.2,2.1-0.6,3.1c4.9,3.1,3.4,8.2,3.8,12.4c0.7,7.7,1.9,9.1,9.7,9.3c1.8,0,3.8-0.6,5.3,0.6
		c6.3,5.1,13,5.3,20.2,1.9C443.4,257.6,445.2,257.9,446.9,257.7z"/>
	<path class="st11" d="M314.9,310.5c-5.6,3-8,8.4-10.1,14c0,0,0,0.1,0,0.1c-1.4,0-2.3,0.8-3,2c-1.1,0.8-0.9,1.8,0.1,2.4
		c2,1.2,3.6,2.1,2.4,5c-0.7,1.7,1.3,2,2.4,2.6c1.8,1,4.6,1.7,2.4,4.5c-1.9,2.5-3,7.1-7.7,5.1c-4-1.8-7.7-4.3-11.6-6.5
		c0.7-3.2,3.3-1.6,5.1-2c2,0.8,3.9,1.6,5.9,2.5c1.1,0.5,2,0.3,2.5-0.7c0.6-1.1-0.1-1.9-1-2.4c-2.3-1.3-4.6-2.6-7.4-2.4
		c-0.3-1-0.7-1.9-1-2.9c1-1.4,2-2.7,3-4.1c2.3-0.6,2.2-3.1,3.6-4.5c3-3,5.7-6.4,7.9-10c0.9-1.4,2.9-3.8,0.1-5.6
		c-2.4-1.5-4.4-0.8-6.1,1.2c-1.1,1.2-1.9,2.7-3.2,3.7c-5.3,3.7-8.2,9.5-12.2,14.3c-1.3,0.3-2.7,0.7-4,1c-1-0.3-2-0.6-3-0.9
		c0.3-3.4-2.1-3.5-4.2-3c-2.4,0.6-3.9,0.8-5.7-1.8c-1.5-2.2-4.3-1.7-5.8,0.7c-0.7,1.1-1,2.4-2.4,3c-0.7-0.3-1.3-0.7-2-1
		c0-0.4,0-0.8,0.1-1.2c2.3-0.8,2.5-3.4,4-4.9c1-0.4,2-0.7,3-1.1c0.6,0,1.3,0,1.9,0.1c3.7,3.7,6.7,3.3,9.2-1.4c1-1.8,2.4-3.5,4.7-2.1
		c1.7,1,4.6,1,3.6,4.3c-0.2,0.8-0.7,1.6,0.5,2c1,0.3,1.5-0.3,2-1.1c3.5-5.4,8.4-9.8,11.1-15.7c1.3-0.1,1.8-0.8,1.8-2.1
		c4.3,2,8.7,4,13,6C314.9,308.6,314.9,309.6,314.9,310.5z"/>
	<path class="st1" d="M345,259.8c0.1,5.7-5,8.5-7.7,12.4c-5.8,8.6-12.8,16.3-19.3,24.5c-0.9,1.1-1.7,2.5-3.1,1.7
		c-1.6-0.9,0.2-1.9,0.5-2.9c2.2-7.6,8.2-12.6,12.6-18.8c4.6-6.6,8.7-13.7,14.9-19.1C342.9,259,343.6,259.7,345,259.8z"/>
	<path class="st1" d="M360.9,234.7c4-8.7,11.7-14.8,16.6-22.9c0.7-1.1,1.7-2,3.2-2c1.1,0,2.2,0.1,3.2,0.1c-1.6,4.3-4.7,7.6-7.6,10.9
		c-4,4.6-7.8,9.3-10.8,14.7c-0.5,0.9-1.5,1.3-2.5,1.4C362.9,235.5,362.2,234.7,360.9,234.7z"/>
	<path class="st7" d="M360.9,234.7c1.4,0.1,2,0.8,2.1,2.1c-0.7,1.3-1.4,2.6-2.1,3.9c-1.3,0-2,0.7-2,2c-0.3,0.3-0.7,0.7-1,1
		c-1.4,0.5-2,1.5-2,3c-2.2,5.6-7.3,8.7-11,13c-1.3-0.1-2-0.8-2.1-2.1C348.2,249.5,354.1,241.8,360.9,234.7z"/>
	<path class="st5" d="M351.9,259.7c0,0.7,0,1.3,0.1,2c-5.3,7.3-10.7,14.7-16,22c-0.7,0-1.3,0-2,0c-0.1-4.4,3.3-7,5.7-10
		c2.9-3.5,6-6.8,8.3-10.8C348.7,261.2,349.8,259.8,351.9,259.7z"/>
	<path class="st7" d="M315,307.7c-4.3-2-8.7-4-13-6c-0.4-1.2-2.4-1.9-1.5-3.3c1-1.5,2.4-0.3,3.5,0.3c5.3,2.6,10.6,5.3,15.9,8
		c1.3,0.6,2.2,1.5,2,3c-0.6,0-1.3,0-1.9,0.1C318.2,309,316.6,308.3,315,307.7z"/>
	<path class="st5" d="M320.9,279.7c0-1,0-1.9,0-2.9c5.1-5.9,8.6-13.2,15.1-18.1c-1.6,5.9-6,10.1-9.5,14.7
		C324.8,275.6,323.7,278.5,320.9,279.7z"/>
	<path class="st7" d="M383.9,209.8c-1.1,0-2.2-0.1-3.2-0.1c0.8-4.6,5.1-6.6,7.3-10.3c0.4-0.7,1.5-0.9,2.2-0.3c1,0.7,0.8,1.8,0.1,2.6
		C388.2,204.4,386.1,207.1,383.9,209.8z"/>
	<path class="st1" d="M356,246.8c0-1.5,0.6-2.5,2-3C357.9,245.2,357.9,246.6,356,246.8z"/>
	<path class="st1" d="M358.9,242.7c0-1.3,0.6-2,2-2C360.9,242,360.2,242.7,358.9,242.7z"/>
	<path class="st8" d="M446.9,257.7c-1.6,0.2-3.5-0.1-4.9,0.6c-7.2,3.4-13.9,3.2-20.2-1.9c-1.5-1.2-3.5-0.6-5.3-0.6
		c-7.8-0.1-9-1.6-9.7-9.3c-0.4-4.2,1.1-9.3-3.8-12.4c-1.6-1-0.7-2.3,0.6-3.1c1.3-0.8,2.6-1.5,3.9-2.3c2.4-1.5,5.1-2.8,0.8-5.4
		c-2.3-1.4-1.3-4.3-2-6.4c-1.2-3.2,2-3.2,3.8-3.9c1.9-0.7,1.9-1.6,0.7-2.8c-0.9-1-1.8-2-1.8-3.4c0.9-1.4,1.3-3.2,3-3.9
		c0.2,1.5-0.6,3.4,1.8,4c3.1,0.8,2.8-2.5,4.1-3.5c2,0.8-0.3,5.9,4.1,3.5c2,2.8,0,2.7-2,3.1c-3,0.5-5.2,2.6-5.8,5.5
		c-0.6,2.8,1.5,4.1,4.1,4.5c1.9,0.3,2.1,2.2,1,3c-3.6,2.5-5,5.6-3.3,9.8c0.1,0.2-0.2,0.6-0.4,0.9c-0.5,1.1-1.1,2.3,0.4,3
		c0.9,0.5,2,0.3,2.7-0.6c2.8-3.5,4.4-2,7,0.7c1.9,1.9,4.3,5.7,8.3,2.7c2.6-1.9,5.3-1.4,7.1,0.7c2,2.3,0,4.2-2,5.7
		c-1.5,1.1-1.9,2.5-0.3,3.7c2.4,1.9,13.3-1.9,13.8-4.9c0.4-2.5,1.1-4.8,2.6-6.8c0.3-0.4,0.5-1.3,0.3-1.9c-0.2-0.7-1-0.7-1.6-0.4
		c-1,0.6-2.4,2.1-2.9-0.3c-0.4-2.2,1.5-1.9,2.9-2.4c4.2-1.7,8.9-0.8,13-2.9c-3.9,5.9-6,12.8-11.7,17.6c-2.1,1.7-2.9,4.9-4.3,7.4
		C448.7,254.6,447,255.1,446.9,257.7C446.9,257.7,446.9,257.7,446.9,257.7z M428.4,247.7c-0.1-0.9-0.8-0.9-1.5-1
		c-0.9,0-1.7,0.2-1.8,1.2c-0.1,1,0.4,1.6,1.5,1.2C427.4,249,428.2,248.7,428.4,247.7z"/>
	<path class="st7" d="M388.8,219.6c2.6-5.8,6.1-10.9,11-15c1.2-1,2.8-2.7,4.3-1.3c1.2,1.1-0.4,2.6-1,3.9c-3.1,5.7-6.3,11.2-12,14.7
		C389.7,221.7,388.9,221,388.8,219.6z"/>
	<path class="st1" d="M413.9,169.7c0.4,2.3-1.1,3.8-2.2,5.3c-3,4.2-6.1,8.2-9.2,12.4c-1.2,1.6-2.7,3.1-4.6,1.9
		c-2.1-1.4-0.7-3.1,0.5-4.6c4.2-5.3,8.4-10.7,12.6-16c0.7,0,1.3,0.1,2,0.1C413.3,169.1,413.6,169.4,413.9,169.7L413.9,169.7z"/>
	<path class="st2" d="M421.9,206.7c-4.4,2.4-2.1-2.8-4.1-3.5c-1.3,1.1-1,4.3-4.1,3.5c-2.4-0.6-1.6-2.5-1.8-4c0.4-2.6,3.2-3.6,4-6
		c1.7-0.1,2.6,1.4,4,2c0.3,1.3,0.7,2.7,1,4c0.3,0.7,0.7,1.3,1,2C421.9,205.4,421.9,206.1,421.9,206.7z"/>
	<path class="st7" d="M412.9,168.8c-0.7,0-1.3-0.1-2-0.1c-0.9-1.6-2.4-2-4.1-2c-0.5-1.3-2.2-2.1-1.9-3.8c2.2,0,3.5,2.6,5.9,1.8
		c1,0.4,2,0.8,3,1.1c0.5,0.8,1.2,0.9,2,0.8c2.5,0.6,4.2,3,7,3.1c1.1,2.5-0.8,1.9-2,2c-2.3-0.7-4.7-1.4-7-2c0,0,0,0,0,0
		C413.6,169.4,413.3,169.1,412.9,168.8z"/>
	<path class="st14" d="M388.8,219.6c0.1,1.4,0.9,2.1,2.3,2.3c-0.5,1.9-1.5,3.3-3.5,3.6c-0.4,0.1-1.2-0.5-1.2-0.6
		C387.1,223.1,386,220.5,388.8,219.6z"/>
	<path class="st4" d="M415.8,162.7c1.7-2.3,3.4-4.7,5-7c1.8-0.7,2.1-2.2,2.1-3.9c3.3-1.8,5.1-5,7.1-7.9c1.2-1.7,2.4-2.8,4.4-1.3
		c2.5,1.9-0.1,2.7-0.9,3.8c-4.2,5.7-8.6,11.2-12.7,16.9c-1.3,1.8-2.8,2.6-5,2.4C415.9,164.7,415.8,163.7,415.8,162.7z"/>
	<path class="st9" d="M415.8,162.7c0,1,0,2,0.1,3c0,0.3,0,0.6,0,0.9c-0.8,0.1-1.6,0-2-0.8C413.9,164.3,413.8,162.9,415.8,162.7z"/>
	<path class="st9" d="M423,151.8c-0.1,1.6-0.3,3.2-2.1,3.9C420.8,154,421,152.4,423,151.8z"/>
	<path class="st8" d="M397,345.7c0-2,1.5-2,2.9-2.1C399.9,345.7,398.4,345.7,397,345.7z"/>
	<path class="st8" d="M392,352.7c0-1.4,0.6-2.4,2-3C393.9,351.1,393.9,352.6,392,352.7z"/>
	<path class="st5" d="M490.8,189.7c-1.4,3-5.1,2.7-7,5c-10.4,4.4-20.6,4.6-30.7-0.9c-1.3-0.7-2.7-1.3-4.2-1.1c-3.2-3.5-7-6.5-9-11
		c2.7-0.4,4.9,1.4,6.7,2.6c5,3.4,10.6,5.4,16,7.9c5.3,2.5,10.6,1.4,15.9,1.4c1.9,0,2.4-1.5,3.5-2.4
		C484.6,189,487.3,187.2,490.8,189.7z"/>
	<path class="st11" d="M471.6,166.3c1,0.5,2.7,0.9,1.4,2.7c-3.8,5.2-5.4,11.6-8.7,17.1c-0.8,1.2-1.4,3.2-3.2,2.4
		c-2.2-0.9-0.4-2.8,0.1-3.8c2.7-5.8,5.8-11.4,8.7-17.1C470.2,166.8,470.3,165.9,471.6,166.3z"/>
	<path class="st10" d="M448.9,192.7c1.5-0.1,2.9,0.4,4.2,1.1c10.1,5.4,20.4,5.3,30.7,0.9c0.3,2.7,5.2,2.3,4,6
		c-2.8,7.1-9,12-11.9,18.9c-0.6,1.4-1.6,2.5-3,3.2c-4.9-0.2-5.1,3.7-6,7c0,0,0,0,0,0c-4.1,2.1-8.8,1.2-13,2.9
		c-1.4,0.6-3.3,0.3-2.9,2.4c0.5,2.4,1.8,0.9,2.9,0.3c0.7-0.4,1.4-0.4,1.6,0.4c0.2,0.5,0.1,1.4-0.3,1.9c-1.6,2-2.2,4.3-2.6,6.8
		c-0.5,3-11.5,6.8-13.8,4.9c-1.5-1.2-1.1-2.6,0.3-3.7c2-1.5,3.9-3.4,2-5.7c-1.8-2.1-4.6-2.6-7.1-0.7c-4,3-6.4-0.8-8.3-2.7
		c-2.6-2.6-4.3-4.2-7-0.7c-0.7,0.9-1.8,1-2.7,0.6c-1.4-0.7-0.9-1.9-0.4-3c0.1-0.3,0.5-0.7,0.4-0.9c-1.7-4.2-0.4-7.2,3.3-9.8
		c1.1-0.7,0.9-2.6-1-3c-2.6-0.5-4.7-1.8-4.1-4.5c0.6-2.9,2.8-4.9,5.8-5.5c2-0.4,4-0.3,2-3.1c0-0.7,0-1.3,0-2
		c0.7-0.2,1.8-0.1,1.4-1.2c-0.4-1.1-1.6-0.7-2.4-0.8c-0.3-1.3-0.7-2.7-1-4c1.1,0.2,2.4,0,3.4,0.5c5,3,9.3,0.7,9.7-5.3
		c0.1-1.4-0.6-3.2,1.2-3.9c1.6-0.7,2.9,0.3,3.9,1.4C441.3,194.7,445,194.4,448.9,192.7z"/>
	<path class="st10" d="M424.9,296.7c0.6,0.4,1,1,0.6,1.6c-4.5,6.4-9,12.8-13.5,19.2c-0.8,1.1-1.9,1.2-3,1.2c-0.3-0.3-0.7-0.7-1-1
		c0.4-1,1.3-2-0.1-3c-3.3-2.6-9.6-2.2-12.9,0.5c-6.1,5.1-13.4,7.6-21.2,8.6c-4.4,0.5-7.8-2.4-11.9-2.9c-8.7-1-13.7-7.2-17.7-13.7
		c-2.6-4.3-3.2-10.1-0.8-15.4c0.8-1.7,1.2-3.4-0.2-5.1c0-1.4-0.1-2.7,1.1-4.1c4.8-5.9,9.3-11.9,13.9-17.9c1.8-0.1,4.1,0.4,5.4-0.5
		c5.6-4.1,13.6-3,18.6-8.5c1-1.1,3.1-1.5,4.7-0.5c6,3.6,13.3,4.2,19.2,8c5.9,3.8,8.1,9.8,10,15.9c0.4,1.2,0.2,2.7-0.7,3.8
		c-3.8,4.4-0.4,7.3,2.3,10C419.4,294.9,422,296.2,424.9,296.7z"/>
	<path class="st8" d="M343.9,345.7c1.1-4.6,2.7-5.3,6.1-2.3c1.5,1.3,3,2.7,5.2,2.2c1.9-0.4,3.5-1.2,3.3-3.5c-0.8-9.4-0.4-9.9,9-12.5
		c0.9-0.3,1.2-1,1.4-1.8c0.7,0,1.3,0,2,0c1.9,3.3,5.6,4.5,8.2,3c3.6-2,6.7-1.8,10.3-1.1c5,0.9,5.3,1.1,3.1,5.8
		c-1.3,2.8-4.6,4.6-3.7,8.3c-0.7,1-1.3,2-2,3c-1.7,3.4-4.6,7-7.7,7.7c-4.8,1.1-4.5,4.2-5.3,7.3c-1,0-2,0-3,0c-1.4,0.1-3-0.5-4,1
		c-2,0-4,0-6,0c-2.3-1.7-3.5-5.6-8-2.7c-1.1,0.7-4.1-3.4-5-6.3c0.8-1.6,2.8-4.2,1.6-4.6C347.1,348.4,346.5,345.4,343.9,345.7z"/>
	<path class="st3" d="M424.9,296.7c-2.9-0.5-5.4-1.8-7.4-3.8c-2.7-2.7-6.1-5.6-2.3-10c1-1.1,1.1-2.6,0.7-3.8
		c-1.9-6.2-4.1-12.2-10-15.9c-5.9-3.8-13.2-4.4-19.2-8c-1.6-1-3.7-0.6-4.7,0.5c-5,5.6-13,4.4-18.6,8.5c-1.2,0.9-3.5,0.4-5.4,0.5
		c-0.1-0.3-0.1-0.6-0.1-0.9c1.1-0.1,2.2-0.2,3.1-1.2c12-12.9,33.4-12.4,47.4-3.1c7.1,4.8,12.2,10.4,12.9,19.3
		c0.1,1.6,0.1,2.8-0.4,4.3c-2.6,7.2-2.6,7.2,4.1,10.6C424.8,294.7,424.9,295.7,424.9,296.7z"/>
	<path class="st2" d="M388.9,343.7c-0.9-3.7,2.4-5.6,3.7-8.3c2.1-4.7,1.9-4.9-3.1-5.8c-3.7-0.6-6.7-0.8-10.3,1.1
		c-2.6,1.4-6.3,0.3-8.2-3c9,0.4,17.8-1.8,24.5-7.5c4.4-3.8,7.7-4.6,12.5-2.5c0.3,0.3,0.7,0.7,1,1c-0.4,4-3.8,6.1-6.2,8.4
		c-4.2,3.9-5.9,9.3-9.2,13.7C392.3,342.4,391.3,344,388.9,343.7z"/>
	<path class="st9" d="M282.9,327.7c1.3-0.3,2.7-0.7,4-1c-0.3,1-0.7,2-1,3c-1.4,0.9-3.2,1.8-2.8,3.7c0.5,2.1,3,2.4,4.8,3.1
		c2,0.8,3-0.6,3.8-2.3c0.5-1.1,1.1-2.1,2.3-2.5c0.3,1,0.7,1.9,1,2.9c0,1,0,2,0,3.1c-1.8,0.5-4.4-1.2-5.1,2
		c-9.6-4.2-19.2-8.2-28.1-13.9c1.3-0.6,1.7-1.9,2.4-3c1.5-2.4,4.3-2.9,5.8-0.7c1.7,2.6,3.2,2.4,5.7,1.8c2.1-0.5,4.6-0.5,4.2,3
		c-0.6,1.1-2.6-0.7-2.6,1.1c0,1.3,1.2,1.7,2.4,1.8C281.2,329.7,282.8,329.8,282.9,327.7z M275.2,326.1c-0.1,0-0.2-0.1-0.3-0.1
		c0,0.2,0,0.3-0.1,0.5c0.1,0,0.3,0,0.4-0.1C275.2,326.3,275.2,326.2,275.2,326.1z"/>
	<path class="st2" d="M373.9,361.6c0.8-3.1,0.5-6.2,5.3-7.3c3.1-0.7,6-4.3,7.7-7.7c2.5,3.1,0,5.4-1.9,6.5c-3,1.7-5.3,3.8-6.8,6.8
		C377.2,362,375.5,361.6,373.9,361.6z"/>
	<path class="st8" d="M466.9,229.7c0.9-3.3,1.1-7.2,6-7C471.1,225.3,470.9,229.1,466.9,229.7z"/>
	<path class="st2" d="M446.9,257.7c0.1-2.6,1.8-3.1,4-3C450.1,256.5,449.2,258.1,446.9,257.7z"/>
	<path class="st2" d="M366.9,362.7c1-1.5,2.6-0.9,4-1C370.2,364.5,368.7,364,366.9,362.7z"/>
	<path class="st2" d="M301.9,326.6c0.6-1.2,1.5-2,3-2C304.9,326.8,303.3,326.7,301.9,326.6z"/>
	<path class="st9" d="M267,317.6c-1,0.4-2,0.7-3,1.1C264.3,316.4,265.3,316.1,267,317.6z"/>
	<path class="st9" d="M259.9,323.6c0,0.4,0,0.8-0.1,1.2C259.2,324.4,259.1,324,259.9,323.6z"/>
	<path class="st9" d="M201,274.7c-2.7,3.2-5.5,5.7-10.1,6.1c-6.6,0.6-11.8-0.9-14.9-7.1c0-0.7,0-1.3,0.1-2c3.3-5.9,12.2-7.9,17.7-4
		c1.8,1.3,3.5,1.6,5.3,0c0.7,0.3,1.3,0.7,2,1C200.9,270.7,200.9,272.7,201,274.7z"/>
	<path class="st8" d="M201,274.7c0-2,0-4,0-6c2-1.6,4,0.3,6,0c2.3,5.2,5,6.4,10.5,4.2c3.7-1.5,7.2-2.3,10.5,0.8
		c-5.6,4.4-12,4.2-18.4,2.8C206.7,275.8,204,274.6,201,274.7z"/>
	<path class="st3" d="M269.9,244.7c0.4-0.8,1.2-1,2-1C271.7,245,271.5,246.2,269.9,244.7z"/>
	<path class="st0" d="M260,406.6c-0.3-0.3-0.7-0.7-1-1c-2.1-2.9-3.5-6.3-7-8c-1.2-2.2-2.6-4.2-3.7-6.5c-4.9-10.3-0.8-18.9,12.2-18.3
		c3.7,0.2,7.2,1.2,11.1,1.1c3.7-0.1,7.4,1.9,9.4,5.6l0,0c-0.4,0.1-1.1,0.2-1.1,0.3c-0.1,0.8,0.7,0.5,1.2,0.7l0,0
		c1.2,1.9,2.4,3,5.2,2.7c2.5-0.3,5.6,0.7,5.2,4.6c-0.1,1.5-0.1,1.7,2,1.8c2.9,0.1,4.9,3.2,5.4,6.2c0.5,3.2,1.4,6.1,2.8,9
		c2.4,4.9,0.8,9-2.5,12.8c-0.7,0-1.4-0.2-2,0c-9,3.7-16.8,0.4-24.6-3.7c-0.7-0.4-1.6-0.3-2.4-0.4c-0.8-1.8-2.3-2.1-4-2
		c-0.1-1.9-1.1-2.9-3-3C262.4,407.3,261.4,406.7,260,406.6z"/>
	<path class="st3" d="M248,397.6c-1.7,1.8-2.3,0.1-3-1C246.1,396.6,247.2,396.5,248,397.6z"/>
	<path class="st0" d="M280.9,379.6c0.4,0.2,0.9,0.3,1.3,0.5c-0.4,0.2-0.9,0.3-1.3,0.5c0,0,0,0,0,0C281,380.3,280.9,380,280.9,379.6
		L280.9,379.6z"/>
	<path class="st3" d="M251,399.6c0.3,0.3,0.7,0.7,1,1C251.6,400.3,251.3,399.9,251,399.6z"/>
	<path class="st8" d="M272.9,295.7c-3.4-0.7-5-3.6-7-6c2.4-0.9,15.5-2,17.4-1.3c1.1,0.4,3.5-0.4,3.1,2.1c-0.4,2.3-2.4,2.6-4.3,2
		C278.2,291.3,275.5,293.1,272.9,295.7z"/>
	<path class="st8" d="M232,276.7c2.1-0.1,3.9,0.4,4,3C233.8,279.8,232.1,279.3,232,276.7z"/>
	<path class="st5" d="M407.9,317.7c-4.8-2.1-8.2-1.2-12.5,2.5c-6.7,5.7-15.4,7.9-24.5,7.5c-0.7,0-1.3,0-2,0
		c-11.2-2.8-21.4-7-27.9-17.6c-4.3-7-3.7-13.7-0.3-20.7c0.4-0.9,0.8-1.8,1.2-2.7c0.4,0,0.8-0.1,1.2-0.1c1.5,1.6,1,3.3,0.2,5.1
		c-2.4,5.3-1.8,11.1,0.8,15.4c4,6.4,9,12.7,17.7,13.7c4.1,0.5,7.5,3.4,11.9,2.9c7.9-1,15.1-3.4,21.2-8.6c3.2-2.7,9.5-3.1,12.9-0.5
		C409.2,315.7,408.3,316.6,407.9,317.7z"/>
	<path class="st11" d="M343,286.7c-0.4,0-0.8,0.1-1.2,0.1c-2-1-4-2.1-5.9-3.1c5.3-7.3,10.7-14.7,16-22c2,0.7,3.9,1.4,5.9,2.1
		c0,0.3,0.1,0.6,0.1,0.9c-4.6,6-9.1,12-13.9,17.9C343,284,343.1,285.2,343,286.7z"/>
	<path class="st8" d="M338.8,335.7c-2.4,1-4,1.6-5.6,2.4c-1.3,0.6-2.6,0.8-3.6-0.5c-0.8-1-0.8-2.2-0.3-3.3c0.7-1.4,2.2-2,3.3-1.5
		c2.9,1.3,7.5-0.5,8.3,4.6c0.6,4.1-3.2,9.8-7.1,10.8c-0.7,0.2-1.4,0.2-1.6-0.5c-0.4-1.2-0.1-2.3,0.7-3.3
		C334.9,341.8,338,340.1,338.8,335.7z"/>
	<path class="st14" d="M343.9,345.7c2.6-0.2,3.2,2.8,5.6,3.4c1.2,0.3-0.8,3-1.6,4.6c-4.3,1-5-2.6-6.3-5.1
		C340.5,346.5,342.9,346.5,343.9,345.7z"/>
	<path class="st8" d="M354.7,339.6c0.1,1.2-0.4,1.9-1.3,1.9c-1.5-0.1-3.1-0.5-3.2-2.4c-0.1-0.9,0.8-1.3,1.7-1.4
		C353.3,337.7,354.4,338.3,354.7,339.6z"/>
	<path class="st9" d="M315,307.7c1.6,0.7,3.3,1.4,4.9,2c-1.4,1.7-3.3,0.7-5,0.8C314.9,309.6,314.9,308.6,315,307.7z"/>
	<path class="st3" d="M285.9,329.7c0.3-1,0.7-2,1-3c4-4.8,6.9-10.5,12.2-14.3c1.3-0.9,2.2-2.4,3.2-3.7c1.7-2,3.7-2.8,6.1-1.2
		c2.9,1.8,0.8,4.2-0.1,5.6c-2.3,3.6-4.9,7.1-7.9,10c-1.4,1.4-1.3,3.9-3.6,4.5c0.3-2,0.7-4,1-5.9c1.1-2.4,3.7-4.1,4-8.1
		c-6.1,4.7-9,10.9-13.1,16.1C287.9,329.6,286.9,329.7,285.9,329.7z"/>
	<path class="st1" d="M297.9,321.7c-0.3,2-0.7,4-1,5.9c-1,1.4-2,2.7-3,4.1c-1.2,0.4-1.8,1.4-2.3,2.5c-0.7,1.6-1.8,3-3.8,2.3
		c-1.8-0.7-4.2-1-4.8-3.1c-0.5-1.8,1.3-2.8,2.8-3.7c1,0,1.9,0,2.9,0c1.5,1.7,2.2,0.2,3-0.8C294,326.5,295,323.3,297.9,321.7z"/>
	<path class="st0" d="M295,337.6c0-1,0-2,0-3.1c2.8-0.2,5.1,1.1,7.4,2.4c0.9,0.5,1.6,1.3,1,2.4c-0.5,1-1.4,1.2-2.5,0.7
		C298.9,339.3,296.9,338.5,295,337.6z"/>
	<path class="st3" d="M282.9,327.7c-0.2,2.1-1.7,2-3.2,1.9c-1.2-0.1-2.5-0.5-2.4-1.8c0-1.8,2,0.1,2.6-1.1
		C280.9,327.1,281.9,327.4,282.9,327.7z"/>
	<path class="st2" d="M428.4,247.7c-0.2,1-1,1.2-1.8,1.5c-1.1,0.4-1.6-0.2-1.5-1.2c0.1-1,0.9-1.3,1.8-1.2
		C427.6,246.8,428.3,246.8,428.4,247.7z"/>
	<path class="st11" d="M412.9,168.8c0.3,0.3,0.6,0.6,1,1C413.6,169.4,413.3,169.1,412.9,168.8z"/>
	<path class="st8" d="M420.9,202.7c0.9,0.1,2.1-0.3,2.4,0.8c0.4,1.1-0.7,1.1-1.4,1.2C421.6,204.1,421.2,203.4,420.9,202.7z"/>
	<path class="st3" d="M275.2,326.1c0,0.1,0,0.3,0,0.3c-0.1,0.1-0.2,0.1-0.4,0.1c0-0.2,0-0.3,0.1-0.5C275,326,275.1,326,275.2,326.1z
		"/>
	<path class="st11" d="M280.9,379.7c0,0.3,0,0.7,0,1c-0.5-0.1-1.2,0.2-1.2-0.7C279.8,379.9,280.5,379.8,280.9,379.7z"/>
	<path class="st7" d="M297.9,321.7c-2.9,1.6-4,4.8-6,7.2c-0.9,1-1.5,2.5-3,0.8c4.1-5.2,7-11.3,13.1-16.1
		C301.6,317.6,299.1,319.3,297.9,321.7z"/>
</g>
</svg>
